<svg width="50" height="50" viewBox="0 0 50 50" fill="none" xmlns="http://www.w3.org/2000/svg">
<path d="M49.9328 31.2573C49.4642 28.1434 46.477 26.0282 45.1298 25.3231C45.7155 23.7955 46.9456 19.0952 43.6069 14.3361C40.9125 10.4583 36.4609 9.92949 35.1137 9.87073C34.3523 7.63807 32.6536 5.46416 30.7207 4.34782C30.7207 4.34782 30.6621 4.28906 30.6036 4.28906C30.545 4.1128 30.4864 3.93654 30.3693 3.76028C30.2521 3.46651 30.0764 3.23149 29.8421 3.05523C29.4907 2.7027 29.0807 2.46769 28.6121 2.35018C28.3778 2.29142 28.1435 2.23267 27.8506 2.17391C27.8506 2.11516 27.8506 2.11516 27.792 2.0564V1.99765C27.3235 0.763804 26.2691 0 25.0391 0C24.5119 0 22.8719 0.176261 22.2276 2.17391C21.5833 2.23267 20.4704 2.52643 19.8261 3.58401C19.7089 3.76028 19.5918 3.99529 19.5332 4.17156C19.5332 4.17156 19.5332 4.17156 19.5332 4.23032C19.2989 4.40658 19.0646 4.58284 18.7717 4.7591C16.4874 6.52173 15.3159 8.93066 14.9059 9.87073C14.9059 9.87073 14.8473 9.87073 14.7887 9.87073C13.0901 9.87073 9.39998 10.8108 6.35416 14.2773C2.42974 18.8602 3.30833 24.3243 4.24551 26.2045C3.07404 27.027 0.32109 29.3184 0.0282223 32.8437C-0.264645 36.134 1.72685 39.483 5.76842 42.8907C9.92714 46.2985 18.3031 50 29.4907 50C33.708 50 37.9838 49.4712 42.1425 48.4136L42.6111 48.2961V47.8261L42.494 40.6581C43.8412 40.0705 44.8369 39.483 45.4812 38.9542C48.8785 36.4865 50.3428 33.9013 49.9328 31.2573Z" fill="white"/>
<path opacity="0.2" d="M25.0976 31.9626C32.9261 31.9626 39.2724 30.2791 39.2724 28.2023C39.2724 26.1256 32.9261 24.442 25.0976 24.442C17.2691 24.442 10.9229 26.1256 10.9229 28.2023C10.9229 30.2791 17.2691 31.9626 25.0976 31.9626Z" fill="url(#paint0_radial_149_5944)"/>
<path d="M21.4653 26.3217V28.9656C21.7582 29.0244 22.2854 29.0831 22.8711 29.0831V27.7905L21.4653 26.3217Z" fill="url(#paint1_linear_149_5944)"/>
<path d="M27.3232 27.7909V29.0835C27.7918 29.0835 28.319 29.0247 28.729 28.966V26.322L27.3232 27.7909Z" fill="url(#paint2_linear_149_5944)"/>
<path d="M25.0973 25.6172C23.8087 25.6172 22.813 24.5596 22.813 23.2083C22.813 21.8569 23.8673 20.7993 25.0973 20.7993C26.386 20.7993 27.3817 21.8569 27.3817 23.2083C27.3817 24.5008 26.3274 25.6172 25.0973 25.6172Z" fill="url(#paint3_radial_149_5944)"/>
<path d="M25.0973 9.63532C23.9259 9.63532 22.813 8.51899 22.813 7.3439C22.813 7.22639 22.813 7.16764 22.813 7.05013C22.9301 6.11006 23.5744 5.05247 24.1016 4.05365C24.2773 3.75988 24.3945 3.46611 24.5702 3.23109C24.8631 2.7023 25.0388 2.29102 25.0388 2.29102C25.0388 2.29102 25.2145 2.7023 25.5074 3.23109C25.6245 3.46611 25.8002 3.75988 25.976 4.11241C26.2102 4.58244 26.5031 5.05247 26.7374 5.52251C27.0303 6.16881 27.2646 6.8151 27.2646 7.40265C27.3231 8.57774 26.2102 9.63532 25.0973 9.63532Z" fill="url(#paint4_radial_149_5944)"/>
<path d="M11.3911 26.0869H11.4497C13.9098 25.3818 17.0142 24.7943 20.4114 24.5005V22.0328C16.487 22.3854 12.8554 23.0904 9.80963 24.148C9.22389 24.3243 10.8054 26.0869 11.3911 26.0869Z" fill="url(#paint5_linear_149_5944)"/>
<path d="M28.4362 44.9478C27.6162 44.9478 26.7962 44.9478 25.9176 44.8891C19.1816 44.5953 15.1986 43.479 11.8014 41.7751C3.89396 37.8386 1.84388 31.6106 6.58833 28.7904C9.92702 32.7269 14.4958 34.3133 19.0059 35.1358C21.5831 35.6059 24.1018 35.8409 26.5033 35.8409C32.5949 35.8409 37.8666 34.4896 40.6781 32.5507C43.4896 30.6118 40.971 28.6729 39.5652 28.6729C36.4608 31.0818 29.9591 32.2569 24.7461 32.2569H24.6875C20.9974 32.2569 15.0815 31.6106 10.5128 28.4966C4.36255 24.325 5.94402 15.5706 12.9143 14.9243C13.1486 14.9243 13.3829 14.8656 13.6171 14.8656C16.1358 14.8656 17.7759 16.1582 17.7759 16.1582C17.7759 16.1582 17.1901 11.8691 19.8845 8.5201C20.0017 8.34384 20.1774 8.16757 20.3531 7.99131C20.2359 7.69754 20.1188 7.46252 20.0017 7.28626C19.7088 6.58121 19.4745 6.16992 19.4159 5.75864C19.3573 5.52362 19.3573 5.28861 19.3573 5.05359C19.2988 5.11234 19.1816 5.1711 19.1231 5.22985C16.3701 7.34501 15.3158 10.459 15.3158 10.459C15.3158 10.459 15.1401 10.459 14.8472 10.459C13.5 10.459 9.86844 11.1641 6.8812 14.6893C2.66391 19.6247 4.36254 25.6176 5.12399 26.4402C5.12399 26.4402 -5.65352 32.6682 6.23689 42.4801C10.6299 46.1229 19.1231 49.4132 29.6077 49.4132C33.5321 49.4132 37.7494 48.9431 42.1424 47.8268L42.0253 43.0089C38.9795 44.184 33.825 44.9478 28.4362 44.9478Z" fill="url(#paint6_linear_149_5944)"/>
<path d="M44.3685 25.617C44.3685 25.617 46.9458 20.2116 43.1385 14.6887C40.2684 10.6346 35.4068 10.4583 34.7625 10.4583C34.7039 10.4583 34.7039 10.4583 34.7039 10.4583C34.1182 8.34318 32.5367 6.22803 30.7795 5.11169C30.7795 5.2292 30.7795 5.34671 30.7795 5.46422C30.7795 5.81674 30.6624 6.11052 30.4867 6.5218C30.4867 6.5218 30.4867 6.58055 30.4281 6.6393C33.0053 8.16692 34.4111 12.221 34.1768 16.2163C34.1768 16.2163 35.6411 15.57 37.4569 15.57C39.3312 15.57 41.7913 16.5101 42.8456 19.0952C43.7828 21.2692 42.9628 24.0894 42.4356 24.7357C38.5698 23.2668 34.1768 22.3855 29.7252 21.9742V24.3244C33.6496 24.6182 37.5155 25.3232 40.8541 26.7333C44.2514 28.1434 46.8286 31.6099 42.0842 35.2527C38.3941 38.0729 30.9552 38.8955 26.7379 38.8955C26.6208 38.8955 26.4451 38.8955 26.3279 38.8955C15.4333 38.7192 8.5216 34.1364 6.76439 31.7862C6.76439 31.7862 5.6515 32.6088 6.70582 34.3714C9.69307 39.3655 18.2448 42.4208 28.4366 42.4208C36.9883 42.4208 42.4942 40.5994 45.2472 38.4842C54.4432 31.4924 45.7157 26.087 44.3685 25.617Z" fill="url(#paint7_linear_149_5944)"/>
<path d="M26.7958 18.8602H26.3273H26.2687H23.8672H23.8086H23.34L20.9971 21.3279V21.6217V21.9155V24.3832V24.6769V24.9707L21.4657 25.4995L22.1685 26.2633L22.8714 26.9683L23.3986 27.4971H26.7958L27.323 26.9683L28.0259 26.2633L28.7288 25.4995L29.1974 24.9707V24.8532V24.6182V24.3244V21.9742V21.6804V21.3867L26.7958 18.8602ZM26.7373 21.5629C26.7958 21.6804 26.913 21.7392 26.9716 21.8567C27.2059 22.268 27.3816 22.6793 27.3816 23.2081C27.3816 23.5606 27.323 23.9131 27.1473 24.2656C27.0887 24.3831 27.0301 24.4419 26.9716 24.5594C26.913 24.6769 26.8544 24.7357 26.7373 24.8532C26.3273 25.3232 25.7415 25.6757 25.0386 25.6757C24.3943 25.6757 23.8086 25.382 23.3986 24.9119C23.34 24.8532 23.2229 24.7357 23.1643 24.6182C23.1057 24.5007 23.0471 24.4419 22.9886 24.3244C22.8128 23.9719 22.7543 23.6193 22.7543 23.2668C22.7543 22.738 22.8714 22.3267 23.1643 21.9155C23.2229 21.7979 23.2814 21.7392 23.3986 21.6217C23.5157 21.5042 23.5743 21.4454 23.6915 21.3279C24.1015 21.0341 24.57 20.8579 25.0386 20.8579C25.5658 20.8579 26.0344 21.0341 26.3858 21.3279C26.5615 21.3279 26.6787 21.4454 26.7373 21.5629Z" fill="url(#paint8_linear_149_5944)"/>
<path d="M20.8801 7.57939C20.9386 7.63814 20.9386 7.75565 20.9972 7.87316C21.0558 7.99067 21.0558 8.04942 21.1143 8.16693C21.1143 8.16693 21.1143 8.16693 21.1143 8.22569V8.28444C21.1729 8.34319 21.1729 8.46071 21.2315 8.51946C21.2901 8.57821 21.2901 8.69572 21.3486 8.75447C21.3486 8.81323 21.4072 8.87198 21.4072 8.93074C21.5829 9.34202 21.8172 9.8708 21.9929 10.4583C22.9301 12.926 23.4573 15.8638 23.7501 18.3314H23.8087H26.2102H26.2688C26.5617 15.9225 27.0888 12.926 28.026 10.4583C28.7289 8.63696 29.1975 7.57939 29.5489 6.87433C29.6075 6.75683 29.6075 6.69807 29.6661 6.63931C29.7246 6.5218 29.7246 6.46305 29.7832 6.34554C29.7832 6.34554 29.7832 6.34554 29.7832 6.28679C29.9589 5.93426 30.0175 5.64049 30.0175 5.40547C30.0175 5.22921 30.0175 5.05295 30.0175 4.81793V4.75917C30.0175 4.70042 29.9589 4.58291 29.9589 4.52416C29.9589 4.4654 29.9004 4.40665 29.9004 4.34789C29.8418 4.23038 29.8418 4.17163 29.7832 4.05412C29.7832 3.99537 29.7246 3.93661 29.7246 3.93661C29.6075 3.76035 29.5489 3.64284 29.3732 3.52533C29.0803 3.23156 28.7289 3.0553 28.3775 2.93779C28.0846 2.82028 27.8503 2.82028 27.6746 2.76152C27.5574 2.76152 27.4403 2.76152 27.3817 2.76152C27.3231 2.58526 27.3231 2.409 27.2646 2.29149V2.23273C26.6788 0.64636 25.2731 0.646362 25.0388 0.646362C24.8045 0.646362 23.1644 0.64636 22.6958 2.82027C22.6958 2.82027 22.6958 2.82027 22.6373 2.82027C22.403 2.82027 21.1729 2.87904 20.47 3.81911C20.4115 3.87786 20.3529 3.93661 20.3529 3.99536C20.2943 4.05412 20.2357 4.17163 20.2357 4.28913C20.2357 4.34789 20.1772 4.40665 20.1186 4.4654C20.1186 4.52415 20.06 4.64167 20.06 4.70042C20.06 4.75918 20.0014 4.81792 20.0014 4.87668C19.9429 5.22921 19.9429 5.46423 20.0014 5.69925C20.1186 6.05177 20.4115 6.58056 20.8801 7.57939ZM24.5702 3.23156C24.6288 3.17281 24.6873 3.05529 24.6873 2.99654C24.6873 2.99654 24.6873 2.99654 24.6873 2.93779C24.7459 2.82028 24.8045 2.76152 24.8045 2.70277C24.9216 2.46775 25.0388 2.29149 25.0388 2.29149C25.0388 2.29149 25.0973 2.46775 25.2731 2.70277C25.3316 2.82028 25.3902 2.87903 25.4488 2.99654C25.5074 3.05529 25.5074 3.11405 25.5659 3.1728C25.5659 3.23156 25.6245 3.23156 25.6245 3.29031C25.7416 3.52533 25.9174 3.76035 26.0345 4.05412C26.2688 4.52416 26.5617 4.99419 26.796 5.40547V5.46422C26.8545 5.52298 26.8545 5.64049 26.9131 5.69925C26.9717 5.81675 27.0303 5.87551 27.0303 5.99302C27.206 6.46305 27.3231 6.87433 27.3231 7.28561C27.3231 8.51946 26.2102 9.57703 25.0388 9.57703C23.8673 9.57703 22.7544 8.4607 22.7544 7.28561C22.7544 7.1681 22.7544 7.10935 22.7544 6.99184C22.7544 6.93309 22.7544 6.87433 22.813 6.81558C22.813 6.69807 22.8715 6.58056 22.9301 6.46306C22.9887 6.34555 22.9887 6.22803 23.0473 6.11053C23.2816 5.40547 23.6916 4.70042 24.1016 4.05412C24.2773 3.76035 24.453 3.52533 24.5702 3.23156Z" fill="url(#paint9_linear_149_5944)"/>
<path d="M20.8794 8.34392L21.1727 8.22546L20.9967 8.28469L20.8794 8.34392Z" fill="#EC1C24"/>
<path d="M49.9328 31.2573C49.4642 28.1434 46.477 26.0282 45.1298 25.3231C45.7155 23.7955 46.9456 19.0952 43.6069 14.3361C40.9125 10.4583 36.4609 9.92949 35.1137 9.87073C34.3523 7.63807 32.6536 5.46416 30.7207 4.34782C30.7207 4.34782 30.6621 4.28906 30.6036 4.28906C30.545 4.1128 30.4864 3.93654 30.3693 3.76028C30.2521 3.46651 30.0764 3.23149 29.8421 3.05523C29.4907 2.7027 29.0807 2.46769 28.6121 2.35018C28.3778 2.29142 28.1435 2.23267 27.8506 2.17391C27.8506 2.11516 27.8506 2.11516 27.792 2.0564V1.99765C27.3235 0.763804 26.2691 0 25.0391 0C24.5119 0 22.8719 0.176261 22.2276 2.17391C21.5833 2.23267 20.4704 2.52643 19.8261 3.58401C19.7089 3.76028 19.5918 3.99529 19.5332 4.17156C19.5332 4.17156 19.5332 4.17156 19.5332 4.23032C19.2989 4.40658 19.0646 4.58284 18.7717 4.7591C16.4874 6.52173 15.3159 8.93066 14.9059 9.87073C14.9059 9.87073 14.8473 9.87073 14.7887 9.87073C13.0901 9.87073 9.39998 10.8108 6.35416 14.2773C2.42974 18.8602 3.30833 24.3243 4.24551 26.2045C3.07404 27.027 0.32109 29.3184 0.0282223 32.8437C-0.264645 36.134 1.72685 39.483 5.76842 42.8907C9.92714 46.2985 18.3031 50 29.4907 50C33.708 50 37.9838 49.4712 42.1425 48.4136L42.6111 48.2961V47.8261L42.494 43.0082V42.1857L41.7325 42.4794C38.4524 43.6545 33.2979 44.4183 28.2606 44.4183C27.4406 44.4183 26.6206 44.4183 25.8005 44.3596C19.8261 44.0658 15.6673 43.1845 11.9186 41.3043C7.46705 39.0717 4.59695 35.9577 4.53838 33.0787C4.4798 31.6686 5.12412 30.4348 6.41273 29.5535C10.1614 33.725 15.2573 35.0176 18.8303 35.7227C21.2904 36.1927 23.8676 36.4277 26.3863 36.4277C32.3022 36.4277 37.8667 35.1351 40.9125 33.02C42.6111 31.8449 42.5526 30.7286 42.3768 30.0823C42.0254 28.9072 40.5611 28.0846 39.5067 28.0846H39.331L39.1553 28.2021C36.1095 30.611 29.5492 31.6686 24.6877 31.6686H24.6291C21.4661 31.6686 15.433 31.1986 10.7472 28.0259C7.93564 26.1457 6.58845 22.973 7.3499 20.0352C7.99421 17.4501 10.0443 15.7462 12.8558 15.5112C13.0901 15.5112 13.3244 15.4524 13.5001 15.4524C15.7845 15.4524 17.3074 16.6275 17.3074 16.6275L18.4203 17.5088L18.2446 16.0987C18.2446 16.04 17.7174 11.9859 20.2361 8.87191C20.2946 8.7544 20.4118 8.63689 20.5289 8.57814L20.5875 8.69565L20.6461 8.87191V8.93067L20.7047 8.98942L20.7632 9.10693C20.939 9.51822 21.1147 10.047 21.349 10.5758C22.1104 12.5734 22.6962 15.0999 23.1062 18.2139H22.989L22.8133 18.3901L22.7547 18.4489L20.3532 20.9753L20.1775 21.1516V21.3866V21.4454C16.1945 21.7979 12.5044 22.5029 9.39998 23.5605C9.04854 23.678 8.81425 24.0306 8.87282 24.4418C8.98997 25.2056 10.3372 26.6157 11.1572 26.6157C11.2158 26.6157 11.3329 26.6157 11.3915 26.557C13.9687 25.7932 17.0145 25.2644 20.1775 24.9706V25.1469L20.3532 25.3231L20.8218 25.8519L21.5247 26.6157L22.2276 27.3208L22.7547 27.8496L22.9304 28.0259H23.1647H26.562H26.7963L26.972 27.8496L27.4992 27.3208L28.2021 26.6157L28.9049 25.8519L29.3735 25.3231L29.5493 25.1469V24.9119V24.8531C33.6494 25.1469 37.3981 25.9694 40.4439 27.2033C42.3768 27.9671 43.6655 29.3184 43.8997 30.7286C44.0755 32.0211 43.2554 33.4313 41.5568 34.7239C37.9253 37.4853 30.4279 38.2491 26.562 38.2491C26.4449 38.2491 26.2691 38.2491 26.152 38.2491C14.6716 38.0729 8.34566 33.1375 6.99847 31.3749L6.64703 30.9048L6.17844 31.2573C5.65127 31.6686 4.94839 32.8437 6.00271 34.6063C9.04853 39.7767 17.6003 42.9495 28.2021 42.9495C38.511 42.9495 43.3726 40.3643 45.3641 38.8954C48.8785 36.4865 50.3428 33.9013 49.9328 31.2573ZM6.7056 34.3713C5.65128 32.6087 6.76417 31.7861 6.76417 31.7861C8.52137 34.1363 15.433 38.7192 26.3277 38.8954C26.4449 38.8954 26.6206 38.8954 26.7377 38.8954C30.955 38.8954 38.3938 38.0729 42.084 35.2526C46.8284 31.6099 44.3098 28.1434 40.8539 26.7333C37.5152 25.3819 33.6494 24.6181 29.725 24.3243V21.9741C34.118 22.3267 38.511 23.208 42.4354 24.7356C42.9626 24.0893 43.724 21.2691 42.8454 19.0952C41.7911 16.51 39.331 15.5699 37.4567 15.5699C35.6409 15.5699 34.1766 16.2162 34.1766 16.2162C34.4108 12.1622 33.0051 8.16686 30.4279 6.63924C30.4279 6.58049 30.4279 6.58049 30.4864 6.52173C30.6622 6.11045 30.7207 5.75793 30.7793 5.46415C30.7793 5.34664 30.7793 5.22914 30.7793 5.11163C32.5365 6.22797 34.118 8.34312 34.7037 10.4583C34.7037 10.4583 34.7037 10.4583 34.7623 10.4583C35.4066 10.4583 40.3268 10.5758 43.1383 14.6886C47.0041 20.2115 44.3683 25.6169 44.3683 25.6169C45.7155 26.087 54.443 31.4924 45.2469 38.4841C42.4354 40.5993 36.9295 42.4207 28.4364 42.4207C18.2446 42.4794 9.69285 39.4242 6.7056 34.3713ZM29.1978 24.9119V25.0294L28.7292 25.5582L28.0263 26.322L27.3235 27.027L26.7963 27.5558H23.399L22.8719 27.027L22.169 26.322L21.4661 25.5582L20.9975 25.0294V24.7356V24.4418V21.9741V21.6804V21.3866L23.3405 18.9189H23.8091H23.8676H26.2691H26.3277H26.7963L29.1392 21.3866V21.6804V21.9741V24.3243V24.6181V24.9119H29.1978ZM11.3915 26.087C10.8057 26.087 9.22425 24.3243 9.80999 24.1481C12.7972 23.0905 16.4874 22.3854 20.4118 22.0329V24.5006C17.0731 24.7944 13.9687 25.3819 11.45 26.087H11.3915ZM30.0764 7.28554C30.0764 7.22679 30.135 7.16804 30.135 7.16804C32.3608 8.57814 33.7665 12.2209 33.5322 16.2162L33.4737 17.1563L34.2937 16.8038C34.2937 16.8038 35.6995 16.2162 37.3981 16.2162C39.0967 16.2162 41.2639 17.0388 42.2597 19.389C42.9626 21.0928 42.5526 23.208 42.1425 24.0893C38.4524 22.738 34.2351 21.8566 29.725 21.5041V21.2691L29.5493 21.0928L27.1477 18.5664L27.0892 18.5076L26.9134 18.3314H26.7963C27.2063 15.2174 27.7335 12.691 28.5535 10.6933C29.315 8.98942 29.7835 7.93184 30.0764 7.28554ZM27.2649 2.17391V2.23266C27.3235 2.35017 27.382 2.52643 27.382 2.7027C27.4406 2.7027 27.4992 2.7027 27.6749 2.7027C27.8506 2.7027 28.1435 2.76145 28.3778 2.87896C28.7292 2.99647 29.0807 3.17273 29.3735 3.46651C29.4907 3.58402 29.6078 3.76028 29.725 3.87779C29.725 3.93654 29.7835 3.93654 29.7835 3.99529C29.8421 4.05405 29.8421 4.17156 29.9007 4.28906C29.9007 4.34782 29.9593 4.40658 29.9593 4.46533C29.9593 4.52408 30.0178 4.6416 30.0178 4.70035V4.7591C30.0764 4.99412 30.0764 5.17038 30.0178 5.34665C30.0178 5.64042 29.9007 5.87544 29.7835 6.22796C29.7835 6.22796 29.7835 6.22797 29.7835 6.28672C29.725 6.34547 29.725 6.46298 29.6664 6.58049C29.6078 6.63925 29.6078 6.75675 29.5493 6.81551C29.1978 7.52056 28.7292 8.57814 28.0263 10.3995C27.0892 12.8672 26.562 15.8049 26.2691 18.2726H23.8676H23.8091C23.5162 15.8637 22.989 12.8672 22.0518 10.3995C21.8176 9.81199 21.6418 9.34195 21.4661 8.87191C21.4661 8.81316 21.4075 8.7544 21.4075 8.69565C21.349 8.57814 21.349 8.51939 21.2904 8.46063C21.2318 8.34312 21.1732 8.22562 21.1732 8.22562V8.16686C21.1732 8.16686 21.1732 8.16686 21.1732 8.1081C21.1147 7.99059 21.1147 7.93184 21.0561 7.81433C20.9975 7.69682 20.9975 7.63807 20.9389 7.52056C20.4704 6.52173 20.2361 5.99295 20.1189 5.58167C20.0603 5.2879 20.0603 5.05287 20.1189 4.7591C20.1189 4.70035 20.1189 4.64159 20.1775 4.58284C20.1775 4.52408 20.2361 4.40658 20.2361 4.34782C20.2361 4.28907 20.2946 4.23031 20.3532 4.17156C20.4118 4.05405 20.4118 3.99529 20.4704 3.87779C20.5289 3.81903 20.5875 3.76028 20.5875 3.70152C21.2904 2.76145 22.5204 2.7027 22.7547 2.7027H22.8133C23.2819 0.528784 24.9219 0.528786 25.1562 0.528786C25.332 0.587541 26.6791 0.587542 27.2649 2.17391ZM17.8346 16.2162C17.8346 16.2162 16.1945 14.9236 13.6758 14.9236C13.4415 14.9236 13.2073 14.9236 12.973 14.9824C6.06129 15.6874 4.42123 24.3831 10.5714 28.5546C15.1402 31.6686 21.0561 32.3149 24.7462 32.3149H24.8048C30.0178 32.3149 36.5195 31.1398 39.6239 28.7309C41.0296 28.7309 43.5483 30.6698 40.7368 32.6087C37.9253 34.5476 32.6536 35.8989 26.562 35.8989C24.1605 35.8989 21.6418 35.6639 19.0646 35.1939C14.613 34.3713 9.98571 32.785 6.64703 28.8484C1.90257 31.6686 3.95264 37.8966 11.8601 41.8331C15.2573 43.4783 19.1817 44.5946 25.9763 44.9471C26.7963 45.0059 27.6749 45.0059 28.4949 45.0059C33.8837 45.0059 39.0382 44.1833 42.2011 43.067L42.3183 47.8848C37.9252 49.0012 33.708 49.4712 29.7835 49.4712C19.3575 49.4712 10.8057 46.181 6.41273 42.5382C-5.47768 32.7262 5.29983 26.4982 5.29983 26.4982C4.4798 25.7344 2.78117 19.6827 7.05704 14.7474C10.0443 11.2221 13.6758 10.517 15.023 10.517C15.3159 10.517 15.4916 10.517 15.4916 10.517C15.4916 10.517 16.5459 7.40306 19.2989 5.2879C19.3575 5.22914 19.4746 5.17039 19.5332 5.11163C19.5332 5.34665 19.5332 5.58167 19.5918 5.81668C19.7089 6.22796 19.8846 6.63925 20.1775 7.3443C20.2946 7.57932 20.4118 7.81434 20.5289 8.04935C20.3532 8.22562 20.1775 8.40188 20.0603 8.57814C17.3074 11.9271 17.8346 16.2162 17.8346 16.2162Z" fill="url(#paint10_linear_149_5944)"/>
<path d="M26.7384 21.5628C26.6212 21.4453 26.5627 21.3865 26.4455 21.269C26.0355 20.9752 25.5669 20.799 25.0983 20.799C24.5712 20.799 24.1026 20.9752 23.7511 21.269C23.634 21.3277 23.5168 21.4453 23.4583 21.5628C23.3997 21.6803 23.2826 21.739 23.224 21.8565C22.9897 22.2678 22.814 22.6791 22.814 23.2079C22.814 23.6192 22.9311 23.9717 23.0483 24.2655C23.1068 24.383 23.1654 24.4417 23.224 24.5592C23.2826 24.6767 23.3411 24.7355 23.4583 24.853C23.8683 25.323 24.454 25.6168 25.0983 25.6168C25.8012 25.6168 26.3869 25.323 26.797 24.7943C26.8555 24.6767 26.9727 24.618 27.0313 24.5005C27.0898 24.383 27.1484 24.3242 27.207 24.2067C27.3241 23.9129 27.4413 23.5604 27.4413 23.1491C27.4413 22.6791 27.3241 22.2091 27.0313 21.7978C26.9141 21.739 26.8555 21.6803 26.7384 21.5628ZM26.5041 24.2067C26.4455 24.3242 26.3869 24.383 26.2698 24.5005C26.1526 24.618 26.0355 24.6767 25.9184 24.7943C25.6841 24.9705 25.3912 25.0293 25.0397 25.0293C24.7469 25.0293 24.454 24.9705 24.2197 24.7943C24.1026 24.7355 23.9854 24.618 23.8683 24.5005C23.8097 24.4417 23.6926 24.3242 23.634 24.2067C23.4583 23.9129 23.3411 23.5604 23.3411 23.1491C23.3411 22.6203 23.5754 22.1503 23.9269 21.7978C24.044 21.6803 24.1611 21.5628 24.3369 21.504C24.5712 21.3865 24.8055 21.3277 25.0983 21.3277C25.3912 21.3277 25.6255 21.3865 25.8598 21.504C26.0355 21.5628 26.1526 21.6803 26.2698 21.7978C26.6212 22.1503 26.8555 22.6203 26.8555 23.1491C26.797 23.5604 26.6798 23.9129 26.5041 24.2067Z" fill="url(#paint11_linear_149_5944)"/>
<path d="M24.8636 2.70288C24.805 2.76163 24.805 2.87915 24.7464 2.9379C24.7464 2.9379 24.7464 2.9379 24.7464 2.99665C24.6878 3.05541 24.6878 3.17292 24.6293 3.23167C24.6293 3.23167 24.6293 3.23167 24.6293 3.29042C24.5121 3.52544 24.3364 3.81922 24.2193 4.11299C23.8678 4.75929 23.4578 5.46434 23.1649 6.1694C23.1064 6.2869 23.0478 6.40441 23.0478 6.52192C22.9892 6.63943 22.9892 6.75694 22.9306 6.87445C22.9306 6.9332 22.9306 6.99196 22.8721 7.05071C22.8721 7.16822 22.8721 7.22697 22.8721 7.34448C22.8721 8.57833 23.985 9.6359 25.1564 9.6359V9.34213V9.04836C24.2778 9.04836 23.4578 8.16705 23.4578 7.34448C23.4578 7.28573 23.4578 7.22697 23.4578 7.10946C23.4578 6.9332 23.5164 6.69818 23.575 6.52192C23.6335 6.40441 23.6335 6.2869 23.6921 6.1694C23.7507 6.05189 23.8092 5.93437 23.8678 5.81687C24.1021 5.34683 24.3364 4.93555 24.5707 4.46551L24.6293 4.348C24.805 4.05423 24.9221 3.76046 25.0979 3.52545C25.215 3.76046 25.3907 4.05423 25.5665 4.348L25.625 4.46551C25.8007 4.75928 25.9765 5.11181 26.1522 5.46434C26.2108 5.58184 26.2693 5.6406 26.3279 5.75811C26.3279 5.75811 26.3279 5.75811 26.3279 5.81687C26.3865 5.93437 26.3865 5.99313 26.4451 6.05188C26.6793 6.58067 26.7965 7.05071 26.7965 7.40323C26.7965 8.28455 25.9765 9.10712 25.0979 9.10712V9.40089V9.69466C26.2693 9.69466 27.3822 8.57832 27.3822 7.40323C27.3822 6.99195 27.2651 6.58067 27.0894 6.11064C27.0308 5.99313 27.0308 5.93437 26.9722 5.81687C26.9136 5.75811 26.9136 5.64061 26.8551 5.58185V5.52309C26.6208 5.05306 26.3865 4.58302 26.0936 4.17174C25.9179 3.87797 25.8007 3.64295 25.6836 3.40793C25.6836 3.34918 25.625 3.34918 25.625 3.29042C25.5664 3.23167 25.5664 3.17291 25.5079 3.11416C25.4493 2.99665 25.3907 2.87914 25.3322 2.82039C25.215 2.58537 25.0979 2.40911 25.0979 2.40911C25.0979 2.2916 24.9807 2.46786 24.8636 2.70288Z" fill="url(#paint12_linear_149_5944)"/>
<defs>
<radialGradient id="paint0_radial_149_5944" cx="0" cy="0" r="1" gradientUnits="userSpaceOnUse" gradientTransform="translate(25.0783 28.215) scale(12.3578 3.20313)">
<stop offset="0.005618" stop-color="#BBD6DD"/>
<stop offset="0.2384" stop-color="#BDD7DE"/>
<stop offset="0.3617" stop-color="#C5DBE1"/>
<stop offset="0.4593" stop-color="#D3E3E7"/>
<stop offset="0.4719" stop-color="#D5E4E8"/>
<stop offset="0.4744" stop-color="#D3E3E8"/>
<stop offset="0.5176" stop-color="#B9D7E1"/>
<stop offset="0.5651" stop-color="#A5CDDC"/>
<stop offset="0.619" stop-color="#97C6D9"/>
<stop offset="0.6845" stop-color="#8FC2D7"/>
<stop offset="0.7933" stop-color="#8CC1D6"/>
<stop offset="1" stop-color="#8CC1D6" stop-opacity="0"/>
</radialGradient>
<linearGradient id="paint1_linear_149_5944" x1="22.1462" y1="29.0881" x2="22.1462" y2="26.5198" gradientUnits="userSpaceOnUse">
<stop stop-color="#6DCEF5"/>
<stop offset="1" stop-color="#0071BB"/>
</linearGradient>
<linearGradient id="paint2_linear_149_5944" x1="28.0081" y1="29.0767" x2="28.0081" y2="26.5192" gradientUnits="userSpaceOnUse">
<stop stop-color="#6DCEF5"/>
<stop offset="1" stop-color="#0071BB"/>
</linearGradient>
<radialGradient id="paint3_radial_149_5944" cx="0" cy="0" r="1" gradientUnits="userSpaceOnUse" gradientTransform="translate(25.0349 19.4992) scale(10.9453 11.5099)">
<stop stop-color="#8CC1D6"/>
<stop offset="0.0331943" stop-color="#97C7DA"/>
<stop offset="0.1409" stop-color="#B7D8E5"/>
<stop offset="0.2581" stop-color="#D1E6EF"/>
<stop offset="0.3864" stop-color="#E6F1F6"/>
<stop offset="0.5315" stop-color="#F4F9FB"/>
<stop offset="0.7074" stop-color="#FCFEFE"/>
<stop offset="1" stop-color="white"/>
</radialGradient>
<radialGradient id="paint4_radial_149_5944" cx="0" cy="0" r="1" gradientUnits="userSpaceOnUse" gradientTransform="translate(24.9886 9.72599) scale(12.9934 13.6637)">
<stop stop-color="#8CC1D6"/>
<stop offset="0.0331943" stop-color="#97C7DA"/>
<stop offset="0.1409" stop-color="#B7D8E5"/>
<stop offset="0.2581" stop-color="#D1E6EF"/>
<stop offset="0.3864" stop-color="#E6F1F6"/>
<stop offset="0.5315" stop-color="#F4F9FB"/>
<stop offset="0.7074" stop-color="#FCFEFE"/>
<stop offset="1" stop-color="white"/>
</radialGradient>
<linearGradient id="paint5_linear_149_5944" x1="0.298409" y1="24.3699" x2="49.2418" y2="23.3534" gradientUnits="userSpaceOnUse">
<stop stop-color="#6DCEF5"/>
<stop offset="1" stop-color="#0071BB"/>
</linearGradient>
<linearGradient id="paint6_linear_149_5944" x1="0.368594" y1="27.7379" x2="49.312" y2="26.7214" gradientUnits="userSpaceOnUse">
<stop stop-color="#6DCEF5"/>
<stop offset="1" stop-color="#0071BB"/>
</linearGradient>
<linearGradient id="paint7_linear_149_5944" x1="0.299469" y1="24.3934" x2="49.2429" y2="23.3769" gradientUnits="userSpaceOnUse">
<stop stop-color="#6DCEF5"/>
<stop offset="1" stop-color="#0071BB"/>
</linearGradient>
<linearGradient id="paint8_linear_149_5944" x1="25.0775" y1="15.3086" x2="25.0775" y2="27.3158" gradientUnits="userSpaceOnUse">
<stop stop-color="#6DCEF5"/>
<stop offset="1" stop-color="#0071BB"/>
</linearGradient>
<linearGradient id="paint9_linear_149_5944" x1="25.119" y1="-5.70775" x2="24.9967" y2="26.354" gradientUnits="userSpaceOnUse">
<stop stop-color="#6DCEF5"/>
<stop offset="1" stop-color="#0071BB"/>
</linearGradient>
<linearGradient id="paint10_linear_149_5944" x1="-78.2295" y1="24.9967" x2="120.465" y2="24.9967" gradientUnits="userSpaceOnUse">
<stop stop-color="#CCC6C1"/>
<stop offset="0.066684" stop-color="#BDB8B4"/>
<stop offset="0.1461" stop-color="#A6A29F"/>
<stop offset="0.5225" stop-color="#DFE0E1"/>
<stop offset="0.6246" stop-color="#D2D2D2"/>
<stop offset="0.8198" stop-color="#B1AEAB"/>
<stop offset="0.8764" stop-color="#A6A29F"/>
<stop offset="1" stop-color="#A6A8AB"/>
</linearGradient>
<linearGradient id="paint11_linear_149_5944" x1="-78.2288" y1="23.1942" x2="120.466" y2="23.1942" gradientUnits="userSpaceOnUse">
<stop stop-color="#CCC6C1"/>
<stop offset="0.066684" stop-color="#BDB8B4"/>
<stop offset="0.1461" stop-color="#A6A29F"/>
<stop offset="0.5225" stop-color="#DFE0E1"/>
<stop offset="0.6246" stop-color="#D2D2D2"/>
<stop offset="0.8198" stop-color="#B1AEAB"/>
<stop offset="0.8764" stop-color="#A6A29F"/>
<stop offset="1" stop-color="#A6A8AB"/>
</linearGradient>
<linearGradient id="paint12_linear_149_5944" x1="-78.2293" y1="5.96763" x2="120.466" y2="5.96763" gradientUnits="userSpaceOnUse">
<stop stop-color="#CCC6C1"/>
<stop offset="0.066684" stop-color="#BDB8B4"/>
<stop offset="0.1461" stop-color="#A6A29F"/>
<stop offset="0.5225" stop-color="#DFE0E1"/>
<stop offset="0.6246" stop-color="#D2D2D2"/>
<stop offset="0.8198" stop-color="#B1AEAB"/>
<stop offset="0.8764" stop-color="#A6A29F"/>
<stop offset="1" stop-color="#A6A8AB"/>
</linearGradient>
</defs>
</svg>
