<svg width="176" height="124" viewBox="0 0 176 124" fill="none" xmlns="http://www.w3.org/2000/svg">
<path d="M32.1962 63.5184C30.5398 62.0256 28.5728 60.8932 26.3471 60.0696C24.0695 59.2461 21.6367 58.8857 18.945 58.8857C13.51 58.8857 9.16195 60.43 5.7974 63.5698C2.89871 66.2979 1.13879 69.7982 0.672924 74.0705C0.569399 74.894 0.517639 75.7176 0.517639 76.5412C0.517639 80.0929 1.44936 83.5416 3.26104 86.9389C5.74564 91.52 9.52429 95.0717 14.5452 97.6454C19.7215 100.271 25.8294 101.609 32.7656 101.609V98.0572C29.9187 98.0572 27.3823 98.0057 25.2083 97.8513C23.0343 97.6969 21.0155 97.491 19.2038 97.1306C17.3922 96.7703 15.8393 96.3586 14.597 95.8953C13.3029 95.432 12.2159 94.7629 11.2324 93.9393C10.249 93.1157 9.47253 92.2407 8.90314 91.2627C8.33375 90.2847 7.81613 89.1522 7.4538 87.7625C7.09146 86.3727 6.83265 84.9314 6.67736 83.3872C6.52207 81.843 6.47031 80.0929 6.47031 78.0339C6.47031 75.7176 6.57383 73.6587 6.83265 71.9086C7.03969 70.1585 7.4538 68.4598 8.02318 66.9156C8.59257 65.3714 9.31724 64.0846 10.249 63.1066C11.1807 62.1286 12.3712 61.305 13.8206 60.7388C15.2699 60.1726 16.9781 59.8637 18.945 59.8637C20.912 59.8637 22.5684 60.1726 24.0695 60.7388C25.5189 61.305 26.7094 62.0771 27.6411 63.0551C28.5728 64.0331 29.2975 65.217 29.8669 66.6583C30.4363 68.0995 30.8504 69.5923 31.0574 71.1879C31.2645 72.7836 31.4198 74.5337 31.4198 76.4383C31.4198 78.8575 31.2127 80.9679 30.8504 82.821C30.488 84.674 29.8669 86.4241 28.9869 87.9683C28.107 89.564 26.8647 90.7479 25.26 91.623C23.6554 92.498 21.6884 92.9613 19.4109 93.0128V94.0937C21.999 94.0422 24.3801 93.6304 26.6059 92.8069C28.7799 91.9833 30.6951 90.8509 32.2997 89.3581C33.9044 87.8654 35.1467 86.0123 36.0266 83.799C36.9066 81.5856 37.3724 79.1149 37.3724 76.4383C37.3724 73.7102 36.9066 71.1879 35.9749 68.9746C35.0431 66.7612 33.8008 65.0111 32.1962 63.5184Z" fill="url(#paint0_linear_1937_389)"/>
<path d="M67.9122 82.358C67.9122 85.395 66.8252 87.8142 64.6511 89.6673C62.4771 91.5203 59.5784 92.4468 56.0068 92.4468C53.1599 92.4468 50.8824 91.4174 49.1224 89.3069C47.3625 87.1965 46.5343 84.4684 46.5343 81.0197V58.9375H40.7369V82.5124C40.7369 85.8067 42.1345 88.4319 44.9297 90.4908C47.7249 92.4983 51.4 93.5278 56.0068 93.5278C60.0443 93.5278 63.2536 92.4468 65.7381 90.3364C68.2227 88.226 69.4133 85.3949 69.4133 81.9462V58.989H67.9122V82.358Z" fill="url(#paint1_linear_1937_389)"/>
<path d="M85.7185 58.8857H73.0367V93.2187H85.7185C90.9982 93.1672 95.2945 91.5715 98.5038 88.4316C101.765 85.2917 103.369 81.1738 103.369 76.0779C103.369 70.9306 101.765 66.7612 98.5038 63.6213C95.2945 60.4814 90.9982 58.8857 85.7185 58.8857ZM93.4311 87.608C91.05 90.542 87.8407 91.9833 83.8033 91.9833H78.7823V60.0696H83.8033C87.8407 60.0696 91.05 61.5109 93.4311 64.4449C95.8121 67.3789 97.0027 71.188 97.0027 75.975C97.0544 80.8135 95.8639 84.7255 93.4311 87.608Z" fill="url(#paint2_linear_1937_389)"/>
<path d="M133.806 82.358C133.806 85.395 132.719 87.8142 130.545 89.6673C128.371 91.5203 125.472 92.4468 121.9 92.4468C119.053 92.4468 116.776 91.4174 115.016 89.3069C113.256 87.1965 112.428 84.4684 112.428 81.0197V58.9375H106.63V82.5124C106.63 85.8067 108.028 88.4319 110.823 90.4908C113.618 92.4983 117.293 93.5278 121.9 93.5278C125.938 93.5278 129.147 92.4468 131.632 90.3364C134.116 88.226 135.307 85.3949 135.307 81.9462V58.989H133.806V82.358Z" fill="url(#paint3_linear_1937_389)"/>
<path d="M175.423 74.0705C174.905 69.8496 173.197 66.3494 170.298 63.5698C166.985 60.43 162.586 58.8857 157.151 58.8857C154.459 58.8857 152.026 59.2975 149.749 60.0696C147.471 60.8417 145.556 62.0256 143.899 63.5184C142.243 65.0111 140.949 66.8642 140.017 69.129C139.085 71.3938 138.62 73.8646 138.62 76.5927C138.62 79.3208 139.085 81.7915 139.965 83.9534C140.845 86.1668 142.139 88.0198 143.692 89.5126C145.297 91.0053 147.212 92.1377 149.386 92.9613C151.56 93.7849 153.993 94.1967 156.581 94.2481V93.1672C154.304 93.1157 152.337 92.6524 150.732 91.7774C149.127 90.9023 147.885 89.667 147.005 88.1228C146.125 86.5271 145.504 84.8285 145.142 82.9754C144.779 81.1223 144.572 79.0119 144.572 76.5927C144.572 74.6367 144.676 72.8866 144.935 71.3424C145.142 69.7467 145.556 68.2539 146.125 66.8127C146.695 65.3714 147.471 64.1361 148.351 63.2095C149.283 62.2315 150.473 61.4594 151.923 60.8932C153.372 60.327 155.08 60.0182 157.047 60.0182C159.014 60.0182 160.722 60.327 162.171 60.8932C163.621 61.4594 164.811 62.2315 165.743 63.261C166.675 64.239 167.451 65.5258 167.969 67.07C168.538 68.6143 168.952 70.2614 169.159 72.063C169.366 73.8131 169.522 75.872 169.522 78.1884C169.522 80.2473 169.47 82.0489 169.315 83.5416C169.159 85.0858 168.901 86.5271 168.538 87.9169C168.176 89.3067 167.71 90.4906 167.089 91.4171C166.52 92.3951 165.691 93.2701 164.76 94.0937C163.776 94.9173 162.637 95.535 161.395 96.0497C160.101 96.513 158.6 96.9762 156.788 97.2851C154.976 97.6454 153.01 97.9028 150.784 98.0057C148.61 98.1601 146.073 98.2116 143.226 98.2116V101.763C150.214 101.763 156.271 100.425 161.447 97.7998C166.468 95.2261 170.246 91.6744 172.731 87.0933C174.594 83.696 175.474 80.2473 175.474 76.6956C175.578 75.7176 175.526 74.894 175.423 74.0705Z" fill="url(#paint4_linear_1937_389)"/>
<path d="M32.5068 63.1586C30.7986 61.6144 28.7799 60.4305 26.5023 59.6069C24.2248 58.7834 21.6367 58.3716 18.945 58.3716C13.4065 58.3716 8.90314 60.0187 5.48682 63.2101C2.48461 66.0412 0.724686 69.6443 0.1553 74.0196C0.0517752 74.8431 1.52588e-05 75.7182 1.52588e-05 76.5932C1.52588e-05 80.1964 0.931738 83.7996 2.84694 87.2483C5.3833 91.8809 9.26548 95.5355 14.3382 98.1607C19.5662 100.837 25.7777 102.176 32.8173 102.176H33.335V101.661V98.1092V97.5945H32.8173C29.9704 97.5945 27.4341 97.543 25.26 97.3886C23.086 97.2342 21.1191 97.0283 19.3591 96.668C17.5992 96.3077 16.0463 95.8959 14.804 95.4326C13.6135 94.9693 12.4747 94.3517 11.543 93.5795C10.6113 92.8074 9.83486 91.9324 9.31724 91.0573C8.74785 90.1308 8.28199 88.9984 7.91965 87.6601C7.55732 86.3218 7.29851 84.8805 7.19498 83.3878C7.0397 81.895 6.98793 80.0935 6.98793 78.0345C6.98793 75.7697 7.09146 73.7107 7.29851 71.9606C7.50556 70.2105 7.91966 68.6148 8.48904 67.1221C9.00667 65.6294 9.73134 64.4455 10.6113 63.4675C11.4913 62.5409 12.63 61.7688 13.9759 61.2541C15.3734 60.7394 17.0298 60.4305 18.8933 60.4305C20.7567 60.4305 22.4131 60.6879 23.8107 61.2541C25.2083 61.8203 26.347 62.5409 27.1752 63.4675C28.0552 64.394 28.7799 65.5779 29.2975 66.9162C29.8669 68.306 30.2292 69.7987 30.488 71.3429C30.6951 72.8872 30.7986 74.6372 30.7986 76.5418C30.7986 78.9096 30.6433 81.02 30.281 82.8216C29.9187 84.6231 29.3493 86.3218 28.4693 87.8145C27.6411 89.3072 26.5023 90.4911 24.9495 91.2632C23.3966 92.0868 21.5332 92.5501 19.3074 92.6016H18.7897V93.1163V94.1972V94.712H19.3074C21.9473 94.6605 24.4318 94.1972 26.6576 93.3737C28.8834 92.5501 30.9021 91.3147 32.5068 89.822C34.1632 88.2778 35.4572 86.3732 36.3889 84.1084C37.3207 81.8436 37.7865 79.3213 37.7865 76.5418C37.7865 73.7622 37.3207 71.137 36.3372 68.8722C35.5608 66.6074 34.2149 64.6514 32.5068 63.1586ZM19.4627 93.2192C21.7402 93.1678 23.7072 92.7045 25.3118 91.8294C26.9164 90.9544 28.1587 89.719 29.0387 88.1748C29.9187 86.5791 30.5398 84.8805 30.9021 83.0275C31.2645 81.1744 31.4715 79.064 31.4715 76.6447C31.4715 74.6887 31.368 72.9386 31.1092 71.3944C30.9021 69.7987 30.488 68.306 29.9187 66.8647C29.3493 65.4235 28.5728 64.1881 27.6929 63.2616C26.7611 62.2836 25.5706 61.5115 24.1213 60.9453C22.6719 60.3791 20.9638 60.0702 18.9968 60.0702C17.0298 60.0702 15.3217 60.3791 13.8723 60.9453C12.423 61.5115 11.2324 62.2836 10.3007 63.3131C9.369 64.2911 8.59257 65.5779 8.07494 67.1221C7.50556 68.6663 7.09146 70.3135 6.88441 72.1151C6.67736 73.8652 6.52207 75.9241 6.52207 78.2404C6.52207 80.2994 6.57383 82.1009 6.72912 83.5937C6.88441 85.1379 7.14322 86.5791 7.50556 87.9689C7.86789 89.3587 8.33375 90.5426 8.9549 91.4691C9.52429 92.4471 10.3525 93.3222 11.2842 94.1458C12.2677 94.9693 13.4065 95.587 14.6488 96.1018C15.9428 96.565 17.4439 97.0283 19.2556 97.3371C21.0673 97.6974 23.0343 97.9548 25.26 98.0578C27.4341 98.2122 29.9704 98.2637 32.8173 98.2637V101.815C25.8294 101.815 19.7732 100.477 14.597 97.8519C9.57605 95.2782 5.7974 91.7265 3.31281 87.1453C1.44936 83.7481 0.5694 80.2994 0.5694 76.7477C0.5694 75.9241 0.621164 75.1005 0.724689 74.2769C1.24231 70.0561 2.95047 66.5559 5.84916 63.7763C9.16195 60.6364 13.5618 59.0922 18.9968 59.0922C21.6884 59.0922 24.1213 59.504 26.3988 60.2761C28.6764 61.0997 30.5916 62.2321 32.248 63.7248C33.9044 65.2176 35.1984 67.0706 36.1301 69.3355C37.0619 71.6003 37.5277 74.071 37.5277 76.7991C37.5277 79.5272 37.0619 81.998 36.1819 84.1599C35.3019 86.3732 34.0079 88.2263 32.455 89.719C30.8504 91.2118 28.9352 92.3442 26.7612 93.1678C24.5871 93.9913 22.1543 94.4031 19.5662 94.4546V93.2192H19.4627Z" fill="url(#paint5_linear_1937_389)"/>
<path d="M67.9122 58.3711H67.3946V58.8858V82.3063C67.3946 85.1888 66.3594 87.4537 64.2889 89.2038C62.2184 90.9539 59.4232 91.8289 55.9551 91.8289C53.2635 91.8289 51.1412 90.8509 49.4848 88.8949C47.8284 86.8874 47.0002 84.2108 47.0002 80.9165V58.8343V58.3196H46.4826H40.6852H40.1676V58.8343V82.4093C40.1676 85.858 41.6687 88.689 44.5674 90.7994C47.4661 92.8584 51.2965 93.9393 55.9551 93.9393C60.0961 93.9393 63.4607 92.8069 65.997 90.5936C68.5851 88.3802 69.8792 85.3947 69.8792 81.7916V58.8343V58.3196H69.3616H67.9122V58.3711ZM69.4133 81.843C69.4133 85.3432 68.171 88.1228 65.7382 90.2332C63.2536 92.3437 60.0443 93.4246 56.0069 93.4246C51.4518 93.4246 47.7249 92.3951 44.9297 90.3877C42.1346 88.3802 40.737 85.7036 40.737 82.4093V58.8343H46.5344V80.9165C46.5344 84.3652 47.4143 87.0933 49.1225 89.2038C50.8824 91.3142 53.16 92.3437 56.0069 92.3437C59.5785 92.3437 62.4772 91.4171 64.6512 89.5641C66.8252 87.711 67.9122 85.2918 67.9122 82.2548V58.8343H69.4133V81.843Z" fill="url(#paint6_linear_1937_389)"/>
<path d="M85.7185 58.3713H73.0367H72.5191V58.8861V93.219V93.7337H73.0367H85.7185C91.1536 93.6823 95.5533 92.0351 98.8661 88.7923C102.179 85.5494 103.887 81.2771 103.887 76.0783C103.887 70.828 102.179 66.5042 98.8661 63.2613C95.5533 60.0185 91.1018 58.3713 85.7185 58.3713ZM73.0367 93.219V58.8861H85.7185C90.9983 58.8861 95.2945 60.4818 98.5038 63.6216C101.765 66.7615 103.369 70.9309 103.369 76.0783C103.369 81.1742 101.765 85.2921 98.5038 88.4319C95.2428 91.5718 90.9983 93.1675 85.7185 93.219H73.0367Z" fill="url(#paint7_linear_1937_389)"/>
<path d="M83.8032 60.0696H78.7823V91.9832H83.8032C87.8407 91.9832 91.05 90.542 93.431 87.608C95.8121 84.674 97.0026 80.8135 97.0026 75.9749C97.0026 71.1879 95.8121 67.3274 93.431 64.4448C91.05 61.5623 87.8407 60.0696 83.8032 60.0696ZM79.3517 91.52V60.6358H83.855C87.6854 60.6358 90.7912 62.0256 93.0687 64.8052C95.398 67.6362 96.5368 71.3938 96.5368 76.0264C96.5368 80.7105 95.3462 84.5196 93.0687 87.2991C90.7912 90.0787 87.6854 91.4685 83.855 91.4685H79.3517V91.52Z" fill="url(#paint8_linear_1937_389)"/>
<path d="M133.806 58.3711H133.288V58.8858V82.3063C133.288 85.1888 132.253 87.4537 130.182 89.2038C128.112 90.9539 125.317 91.8289 121.849 91.8289C119.157 91.8289 117.035 90.8509 115.378 88.8949C113.722 86.8874 112.894 84.2108 112.894 80.9165V58.8343V58.3196H112.376H106.579H106.061V58.8343V82.4093C106.061 85.858 107.562 88.689 110.461 90.7994C113.36 92.8584 117.19 93.9393 121.849 93.9393C125.99 93.9393 129.354 92.8069 131.89 90.5936C134.479 88.3802 135.773 85.3947 135.773 81.7916V58.8343V58.3196H135.255H133.806V58.3711ZM135.307 81.843C135.307 85.3432 134.065 88.1228 131.632 90.2332C129.147 92.3437 125.938 93.4246 121.9 93.4246C117.345 93.4246 113.618 92.3951 110.823 90.3877C108.028 88.3802 106.63 85.7036 106.63 82.4093V58.8343H112.428V80.9165C112.428 84.3652 113.308 87.0933 115.016 89.2038C116.776 91.3142 119.053 92.3437 121.9 92.3437C125.472 92.3437 128.371 91.4171 130.545 89.5641C132.719 87.711 133.806 85.2918 133.806 82.2548V58.8343H135.307V81.843Z" fill="url(#paint9_linear_1937_389)"/>
<path d="M175.94 74.0193C175.423 69.6955 173.611 66.0409 170.609 63.2099C167.192 60.0185 162.637 58.3713 157.151 58.3713C154.459 58.3713 151.871 58.7831 149.593 59.6067C147.264 60.4303 145.245 61.6142 143.589 63.1584C141.881 64.7026 140.535 66.6071 139.603 68.9234C138.671 71.2397 138.154 73.8134 138.154 76.593C138.154 79.3726 138.62 81.8948 139.551 84.1596C140.483 86.4245 141.777 88.3805 143.434 89.8732C145.09 91.4174 147.057 92.6013 149.283 93.4249C151.508 94.2485 153.993 94.7117 156.633 94.7632H157.151V94.2485V93.1675V92.6528H156.633C154.407 92.6013 152.544 92.138 150.991 91.3145C149.49 90.4909 148.299 89.307 147.471 87.8657C146.643 86.3215 146.022 84.6744 145.659 82.8728C145.297 81.0712 145.142 78.9608 145.142 76.593C145.142 74.6885 145.245 72.9384 145.452 71.3942C145.659 69.85 146.073 68.4087 146.643 66.9674C147.212 65.5777 147.937 64.4452 148.765 63.5187C149.645 62.5922 150.784 61.8715 152.13 61.3053C153.527 60.7391 155.184 60.4818 157.047 60.4818C158.91 60.4818 160.619 60.7391 161.964 61.3053C163.362 61.8201 164.501 62.5922 165.329 63.5187C166.209 64.4452 166.934 65.6806 167.451 67.1733C168.021 68.6661 168.383 70.3132 168.642 72.0119C168.849 73.762 168.952 75.8209 168.952 78.0857C168.952 80.1447 168.901 81.8948 168.745 83.439C168.59 84.9317 168.383 86.373 168.021 87.7113C167.658 89.0496 167.192 90.1821 166.623 91.1086C166.054 92.0351 165.329 92.8587 164.397 93.6308C163.466 94.4029 162.379 95.0206 161.136 95.4838C159.894 95.9471 158.393 96.3589 156.581 96.7192C154.821 97.0795 152.802 97.2854 150.68 97.4398C148.506 97.5942 145.97 97.6457 143.123 97.6457H142.605V98.1605V101.712V102.227H143.123C150.163 102.227 156.374 100.889 161.602 98.2119C166.675 95.5868 170.557 91.9322 173.093 87.2995C174.957 83.8508 175.94 80.2476 175.94 76.6445C176.044 75.718 175.992 74.8429 175.94 74.0193ZM143.278 98.109C146.125 98.109 148.662 98.0575 150.836 97.9031C153.01 97.7487 155.028 97.5428 156.84 97.1825C158.652 96.8221 160.205 96.4104 161.447 95.9471C162.741 95.4838 163.828 94.8147 164.811 93.9911C165.795 93.1675 166.571 92.2925 167.141 91.3145C167.71 90.3365 168.228 89.2041 168.59 87.8143C168.952 86.4245 169.211 84.9832 169.366 83.439C169.522 81.8948 169.573 80.1447 169.573 78.0857C169.573 75.7694 169.47 73.7105 169.211 71.9604C169.004 70.2103 168.59 68.5117 168.021 66.9674C167.451 65.4232 166.727 64.1364 165.795 63.1584C164.863 62.1804 163.673 61.3568 162.223 60.7906C160.774 60.2244 159.066 59.9155 157.099 59.9155C155.132 59.9155 153.475 60.2244 151.974 60.7906C150.525 61.3568 149.334 62.1289 148.403 63.1069C147.471 64.0849 146.746 65.2688 146.177 66.7101C145.608 68.1513 145.193 69.6441 144.986 71.2397C144.779 72.8354 144.624 74.5855 144.624 76.4901C144.624 78.9093 144.831 81.0197 145.193 82.8728C145.556 84.7258 146.177 86.4759 147.057 88.0202C147.937 89.6158 149.179 90.7997 150.784 91.6748C152.388 92.5498 154.355 93.0131 156.633 93.0646V94.1455C154.045 94.094 151.664 93.6823 149.438 92.8587C147.264 92.0351 145.349 90.9027 143.744 89.4099C142.139 87.9172 140.897 86.0642 140.017 83.8508C139.137 81.6374 138.671 79.1667 138.671 76.4901C138.671 73.762 139.137 71.2398 140.069 69.0264C141.001 66.813 142.295 64.9085 143.951 63.4158C145.608 61.923 147.574 60.7906 149.8 59.967C152.026 59.1434 154.511 58.7831 157.202 58.7831C162.637 58.7831 166.985 60.3273 170.35 63.4672C173.249 66.1953 175.009 69.6955 175.474 73.9678C175.578 74.7914 175.63 75.615 175.63 76.4386C175.63 79.9903 174.698 83.439 172.886 86.8363C170.402 91.4174 166.623 94.9691 161.602 97.5428C156.426 100.168 150.318 101.506 143.382 101.506V98.109H143.278Z" fill="url(#paint10_linear_1937_389)"/>
<path d="M109.995 27.384C109.581 24.6559 106.941 22.8028 105.751 22.1851C106.268 20.8468 107.355 16.7289 104.405 12.5596C102.024 9.1623 98.0897 8.69904 96.8992 8.64757C96.2263 6.69157 94.7252 4.78705 93.017 3.80905C93.017 3.80905 92.9652 3.75757 92.9135 3.75757C92.8617 3.60315 92.81 3.44873 92.7064 3.29431C92.6029 3.03694 92.4476 2.83105 92.2406 2.67663C91.93 2.36779 91.5677 2.16189 91.1536 2.05895C90.9465 2.00747 90.7395 1.956 90.4806 1.90452C90.4806 1.85305 90.4807 1.85305 90.4289 1.80158V1.7501C90.0148 0.669154 89.0831 0 87.9961 0C87.5302 0 86.0809 0.154419 85.5115 1.90452C84.9421 1.956 83.9586 2.21336 83.3892 3.13989C83.2857 3.29431 83.1822 3.5002 83.1304 3.65462C83.1304 3.65462 83.1304 3.65463 83.1304 3.7061C82.9233 3.86052 82.7163 4.01494 82.4575 4.16936C80.4388 5.71357 79.4035 7.82399 79.0412 8.64757C79.0412 8.64757 78.9894 8.64757 78.9376 8.64757C77.4365 8.64757 74.1755 9.47114 71.4839 12.5081C68.0158 16.523 68.7922 21.3101 69.6204 22.9572C68.5852 23.6779 66.1523 25.6853 65.8935 28.7738C65.6347 31.6563 67.3946 34.5903 70.9662 37.5758C74.6414 40.5612 82.0434 43.8041 91.93 43.8041C95.6569 43.8041 99.4355 43.3408 103.111 42.4143L103.525 42.3113V41.8995L103.421 35.6198C104.612 35.105 105.492 34.5903 106.061 34.127C109.063 31.9651 110.357 29.7003 109.995 27.384Z" fill="white"/>
<path opacity="0.2" d="M88.0479 28.0017C94.966 28.0017 100.574 26.5268 100.574 24.7074C100.574 22.888 94.966 21.4131 88.0479 21.4131C81.1297 21.4131 75.5214 22.888 75.5214 24.7074C75.5214 26.5268 81.1297 28.0017 88.0479 28.0017Z" fill="url(#paint11_radial_1937_389)"/>
<path d="M84.8386 23.0601V25.3764C85.0974 25.4278 85.5633 25.4793 86.0809 25.4793V24.3469L84.8386 23.0601Z" fill="url(#paint12_linear_1937_389)"/>
<path d="M90.0148 24.3469V25.4793C90.4289 25.4793 90.8948 25.4278 91.2571 25.3764V23.0601L90.0148 24.3469Z" fill="url(#paint13_linear_1937_389)"/>
<path d="M88.0479 22.4423C86.9091 22.4423 86.0292 21.5158 86.0292 20.3319C86.0292 19.148 86.9609 18.2214 88.0479 18.2214C89.1867 18.2214 90.0666 19.148 90.0666 20.3319C90.0666 21.4643 89.1349 22.4423 88.0479 22.4423Z" fill="url(#paint14_radial_1937_389)"/>
<path d="M88.0479 8.44153C87.0127 8.44153 86.0292 7.46353 86.0292 6.43406C86.0292 6.33111 86.0292 6.27964 86.0292 6.17669C86.1327 5.35311 86.7021 4.42659 87.1679 3.55153C87.3232 3.29417 87.4268 3.0368 87.582 2.83091C87.8409 2.36764 87.9961 2.00732 87.9961 2.00732C87.9961 2.00732 88.1514 2.36764 88.4102 2.83091C88.5138 3.0368 88.6691 3.29417 88.8243 3.60301C89.0314 4.0148 89.2902 4.42659 89.4973 4.83837C89.7561 5.40458 89.9631 5.97079 89.9631 6.48553C90.0149 7.515 89.0314 8.44153 88.0479 8.44153Z" fill="url(#paint15_radial_1937_389)"/>
<path d="M75.9354 22.8542H75.9871C78.1612 22.2365 80.9046 21.7217 83.9068 21.4644V19.3025C80.4387 19.6113 77.2294 20.229 74.5378 21.1555C74.0202 21.31 75.4178 22.8542 75.9354 22.8542Z" fill="url(#paint16_linear_1937_389)"/>
<path d="M90.9983 39.3774C90.2736 39.3774 89.5489 39.3774 88.7725 39.3259C82.8198 39.0685 79.3 38.0905 76.2978 36.5978C69.3098 33.149 67.4982 27.6928 71.6909 25.2221C74.6414 28.6708 78.6788 30.0606 82.6645 30.7813C84.9421 31.1931 87.1678 31.399 89.2901 31.399C94.6734 31.399 99.332 30.2151 101.817 28.5164C104.301 26.8178 102.075 25.1192 100.833 25.1192C98.0897 27.2296 92.3441 28.2591 87.7372 28.2591H87.6855C84.4244 28.2591 79.1965 27.6928 75.159 24.9647C69.7239 21.3101 71.1215 13.6405 77.2812 13.0743C77.4883 13.0743 77.6953 13.0229 77.9024 13.0229C80.1282 13.0229 81.5775 14.1553 81.5775 14.1553C81.5775 14.1553 81.0599 10.3977 83.441 7.46371C83.5445 7.30929 83.6998 7.15486 83.8551 7.00044C83.7515 6.74307 83.648 6.53718 83.5445 6.38276C83.2857 5.76507 83.0786 5.40476 83.0269 5.04444C82.9751 4.83855 82.9751 4.63265 82.9751 4.42676C82.9233 4.47823 82.8198 4.52971 82.7681 4.58118C80.3352 6.43423 79.4035 9.16233 79.4035 9.16233C79.4035 9.16233 79.2482 9.16233 78.9894 9.16233C77.7989 9.16233 74.5896 9.78002 71.9497 12.8684C68.2228 17.1922 69.7239 22.4425 70.3968 23.1632C70.3968 23.1632 60.8726 28.6194 71.3803 37.2155C75.2625 40.4068 82.7681 43.2894 92.0335 43.2894C95.5016 43.2894 99.2285 42.8776 103.111 41.8996L103.007 37.6787C100.315 38.7082 95.7604 39.3774 90.9983 39.3774Z" fill="url(#paint17_linear_1937_389)"/>
<path d="M105.078 22.4426C105.078 22.4426 107.355 17.707 103.991 12.8685C101.454 9.3168 97.158 9.16237 96.5886 9.16237C96.5368 9.16237 96.5368 9.16237 96.5368 9.16237C96.0192 7.30932 94.6216 5.45627 93.0687 4.47827C93.0687 4.58122 93.0687 4.68416 93.0687 4.78711C93.0687 5.09595 92.9652 5.35332 92.8099 5.71364C92.8099 5.71364 92.8099 5.76511 92.7582 5.81658C95.0357 7.1549 96.278 10.7066 96.0709 14.2068C96.0709 14.2068 97.365 13.6406 98.9696 13.6406C100.626 13.6406 102.8 14.4642 103.732 16.729C104.56 18.6335 103.835 21.1043 103.369 21.6705C99.9531 20.3836 96.0709 19.6115 92.137 19.2512V21.3102C95.6051 21.5675 99.0214 22.1852 101.972 23.4206C104.974 24.6559 107.252 27.6929 103.059 30.8843C99.7978 33.355 93.224 34.0756 89.4971 34.0756C89.3936 34.0756 89.2383 34.0756 89.1348 34.0756C79.507 33.9212 73.399 29.9062 71.8462 27.8473C71.8462 27.8473 70.8627 28.5679 71.7944 30.1122C74.4343 34.4874 81.9916 37.164 90.9982 37.164C98.5555 37.164 103.421 35.5684 105.854 33.7153C113.981 27.5899 106.268 22.8544 105.078 22.4426Z" fill="url(#paint18_linear_1937_389)"/>
<path d="M89.5489 16.5232H89.1348H89.0831H86.9608H86.909H86.4949L84.4244 18.6851V18.9425V19.1998V21.3617V21.6191V21.8765L84.8385 22.3397L85.4597 23.0089L86.0808 23.6266L86.5467 24.0898H89.5489L90.0148 23.6266L90.6359 23.0089L91.2571 22.3397L91.6712 21.8765V21.7735V21.5676V21.3102V19.2513V18.9939V18.7366L89.5489 16.5232ZM89.4972 18.891C89.5489 18.9939 89.6524 19.0454 89.7042 19.1484C89.9112 19.5087 90.0665 19.869 90.0665 20.3322C90.0665 20.6411 90.0148 20.9499 89.8595 21.2588C89.8077 21.3617 89.756 21.4132 89.7042 21.5161C89.6524 21.6191 89.6007 21.6706 89.4972 21.7735C89.1348 22.1853 88.6172 22.4941 87.996 22.4941C87.4267 22.4941 86.909 22.2368 86.5467 21.825C86.4949 21.7735 86.3914 21.6706 86.3396 21.5676C86.2879 21.4647 86.2361 21.4132 86.1844 21.3102C86.0291 21.0014 85.9773 20.6926 85.9773 20.3837C85.9773 19.9205 86.0808 19.5601 86.3396 19.1998C86.3914 19.0969 86.4432 19.0454 86.5467 18.9425C86.6502 18.8395 86.702 18.788 86.8055 18.6851C87.1678 18.4277 87.5819 18.2733 87.996 18.2733C88.4619 18.2733 88.876 18.4277 89.1866 18.6851C89.3419 18.6851 89.4454 18.788 89.4972 18.891Z" fill="url(#paint19_linear_1937_389)"/>
<path d="M84.3209 6.64005C84.3727 6.69153 84.3727 6.79447 84.4244 6.89742C84.4762 7.00037 84.4762 7.05184 84.5279 7.15479C84.5279 7.15479 84.5279 7.15479 84.5279 7.20627V7.25774C84.5797 7.30921 84.5797 7.41216 84.6315 7.46363C84.6832 7.51511 84.6832 7.61805 84.735 7.66953C84.735 7.721 84.7868 7.77248 84.7868 7.82395C84.942 8.18426 85.1491 8.64752 85.3044 9.16226C86.1326 11.3242 86.5984 13.8978 86.8573 16.0597H86.909H89.0313H89.083C89.3418 13.9493 89.8077 11.3242 90.6359 9.16226C91.2571 7.56658 91.6712 6.64006 91.9817 6.02237C92.0335 5.91942 92.0335 5.86795 92.0852 5.81647C92.137 5.71352 92.137 5.66205 92.1888 5.5591C92.1888 5.5591 92.1888 5.55911 92.1888 5.50763C92.3441 5.19879 92.3958 4.94142 92.3958 4.73553C92.3958 4.58111 92.3958 4.42669 92.3958 4.22079V4.16932C92.3958 4.11784 92.3441 4.0149 92.3441 3.96343C92.3441 3.91195 92.2923 3.86048 92.2923 3.809C92.2405 3.70606 92.2405 3.65458 92.1888 3.55163C92.1888 3.50016 92.137 3.44869 92.137 3.44869C92.0335 3.29427 91.9817 3.19132 91.8264 3.08838C91.5676 2.83101 91.2571 2.67659 90.9465 2.57364C90.6877 2.47069 90.4806 2.47069 90.3253 2.41922C90.2218 2.41922 90.1183 2.41922 90.0665 2.41922C90.0148 2.2648 90.0148 2.11037 89.963 2.00743V1.95595C89.4454 0.566161 88.2031 0.566162 87.996 0.566162C87.789 0.566162 86.3396 0.566161 85.9255 2.47069C85.9255 2.47069 85.9255 2.47069 85.8738 2.47069C85.6667 2.47069 84.5797 2.52217 83.9586 3.34574C83.9068 3.39722 83.855 3.44868 83.855 3.50016C83.8033 3.55163 83.7515 3.65458 83.7515 3.75753C83.7515 3.809 83.6998 3.86048 83.648 3.91195C83.648 3.96342 83.5962 4.06637 83.5962 4.11785C83.5962 4.16932 83.5445 4.22079 83.5445 4.27226C83.4927 4.5811 83.4927 4.787 83.5445 4.9929C83.648 5.30174 83.9068 5.765 84.3209 6.64005ZM87.5819 2.83101C87.6337 2.77953 87.6855 2.67658 87.6855 2.62511C87.6855 2.62511 87.6855 2.62511 87.6855 2.57364C87.7372 2.47069 87.789 2.41921 87.789 2.36774C87.8925 2.16184 87.996 2.00743 87.996 2.00743C87.996 2.00743 88.0478 2.16184 88.2031 2.36774C88.2548 2.47069 88.3066 2.52216 88.3584 2.62511C88.4101 2.67658 88.4101 2.72806 88.4619 2.77953C88.4619 2.831 88.5136 2.831 88.5136 2.88248C88.6172 3.08837 88.7725 3.29427 88.876 3.55163C89.083 3.96342 89.3418 4.37521 89.5489 4.73553V4.787C89.6007 4.83847 89.6007 4.94142 89.6524 4.9929C89.7042 5.09585 89.7559 5.14732 89.7559 5.25027C89.9112 5.66206 90.0148 6.02237 90.0148 6.38269C90.0148 7.46363 89.0313 8.39015 87.996 8.39015C86.9608 8.39015 85.9773 7.41216 85.9773 6.38269C85.9773 6.27974 85.9773 6.22826 85.9773 6.12532C85.9773 6.07384 85.9773 6.02237 86.0291 5.97089C86.0291 5.86795 86.0808 5.765 86.1326 5.66206C86.1843 5.55911 86.1843 5.45616 86.2361 5.35321C86.4432 4.73553 86.8055 4.11785 87.1678 3.55163C87.3231 3.29427 87.4784 3.08838 87.5819 2.83101Z" fill="url(#paint20_linear_1937_389)"/>
<path d="M84.3209 7.30999L84.5801 7.2063L84.4246 7.25814L84.3209 7.30999Z" fill="#EC1C24"/>
<path d="M109.995 27.384C109.581 24.6559 106.941 22.8028 105.751 22.1851C106.268 20.8468 107.355 16.7289 104.405 12.5596C102.024 9.1623 98.0897 8.69904 96.8992 8.64757C96.2263 6.69157 94.7252 4.78705 93.017 3.80905C93.017 3.80905 92.9652 3.75757 92.9135 3.75757C92.8617 3.60315 92.81 3.44873 92.7064 3.29431C92.6029 3.03694 92.4476 2.83105 92.2406 2.67663C91.93 2.36779 91.5677 2.16189 91.1536 2.05895C90.9465 2.00747 90.7395 1.956 90.4806 1.90452C90.4806 1.85305 90.4807 1.85305 90.4289 1.80158V1.7501C90.0148 0.669154 89.0831 0 87.9961 0C87.5302 0 86.0809 0.154419 85.5115 1.90452C84.9421 1.956 83.9586 2.21336 83.3892 3.13989C83.2857 3.29431 83.1822 3.5002 83.1304 3.65462C83.1304 3.65462 83.1304 3.65463 83.1304 3.7061C82.9233 3.86052 82.7163 4.01494 82.4575 4.16936C80.4388 5.71357 79.4035 7.82399 79.0412 8.64757C79.0412 8.64757 78.9894 8.64757 78.9376 8.64757C77.4365 8.64757 74.1755 9.47114 71.4839 12.5081C68.0158 16.523 68.7922 21.3101 69.6204 22.9572C68.5852 23.6779 66.1523 25.6853 65.8935 28.7738C65.6347 31.6563 67.3946 34.5903 70.9662 37.5758C74.6414 40.5612 82.0434 43.8041 91.93 43.8041C95.6569 43.8041 99.4355 43.3408 103.111 42.4143L103.525 42.3113V41.8995L103.421 37.6787V36.9581L102.748 37.2154C99.8496 38.2449 95.2945 38.9141 90.843 38.9141C90.1183 38.9141 89.3936 38.9141 88.669 38.8626C83.3892 38.6052 79.7141 37.8331 76.4013 36.186C72.4674 34.23 69.931 31.5019 69.8792 28.9797C69.8275 27.7443 70.3969 26.6633 71.5356 25.8912C74.8484 29.5459 79.3517 30.6783 82.5093 31.296C84.6833 31.7078 86.9608 31.9137 89.1866 31.9137C94.4146 31.9137 99.332 30.7812 102.024 28.9282C103.525 27.8987 103.473 26.9207 103.318 26.3545C103.007 25.325 101.713 24.6044 100.781 24.6044H100.626L100.471 24.7073C97.7791 26.8178 91.9818 27.7443 87.6855 27.7443H87.6337C84.8386 27.7443 79.507 27.3325 75.366 24.5529C72.8815 22.9058 71.6909 20.1262 72.3638 17.5525C72.9332 15.2877 74.7449 13.7949 77.2295 13.589C77.4365 13.589 77.6436 13.5376 77.7989 13.5376C79.8176 13.5376 81.1634 14.567 81.1634 14.567L82.1469 15.3391L81.9916 14.1038C81.9916 14.0523 81.5258 10.5006 83.7515 7.77252C83.8033 7.66957 83.9068 7.56662 84.0104 7.51515L84.0621 7.61809L84.1139 7.77252V7.82399L84.1656 7.87546L84.2174 7.97841C84.3727 8.33873 84.528 8.80199 84.735 9.26525C85.4079 11.0154 85.9256 13.2287 86.2879 15.9568H86.1844L86.0291 16.1112L85.9773 16.1627L83.8551 18.3761L83.6998 18.5305V18.7364V18.7879C80.1799 19.0967 76.9189 19.7144 74.1755 20.6409C73.8649 20.7439 73.6579 21.0527 73.7097 21.413C73.8132 22.0822 75.0037 23.3176 75.7284 23.3176C75.7801 23.3176 75.8837 23.3176 75.9354 23.2661C78.213 22.5969 80.9046 22.1337 83.6998 21.8763V22.0307L83.8551 22.1851L84.2692 22.6484L84.8903 23.3176L85.5115 23.9352L85.9773 24.3985L86.1326 24.5529H86.3397H89.3419H89.5489L89.7042 24.3985L90.1701 23.9352L90.7912 23.3176L91.4124 22.6484L91.8265 22.1851L91.9818 22.0307V21.8248V21.7733C95.6051 22.0307 98.9179 22.7513 101.61 23.8323C103.318 24.5014 104.456 25.6853 104.664 26.9207C104.819 28.0531 104.094 29.2885 102.593 30.4209C99.3838 32.8402 92.7582 33.5093 89.3419 33.5093C89.2384 33.5093 89.0831 33.5093 88.9795 33.5093C78.8341 33.3549 73.2438 29.0311 72.0533 27.4869L71.7427 27.0751L71.3286 27.384C70.8627 27.7443 70.2416 28.7738 71.1733 30.318C73.8649 34.8477 81.4222 37.6272 90.7912 37.6272C99.9014 37.6272 104.198 35.3624 105.958 34.0756C109.063 31.9651 110.357 29.7003 109.995 27.384ZM71.7944 30.1121C70.8627 28.5679 71.8462 27.8472 71.8462 27.8472C73.3991 29.9062 79.507 33.9211 89.1348 34.0756C89.2384 34.0756 89.3936 34.0756 89.4972 34.0756C93.2241 34.0756 99.7979 33.3549 103.059 30.8842C107.252 27.6928 105.026 24.6559 101.972 23.4205C99.0214 22.2366 95.6051 21.5675 92.137 21.3101V19.2511C96.0192 19.56 99.9014 20.3321 103.369 21.6704C103.835 21.1042 104.508 18.6335 103.732 16.7289C102.8 14.4641 100.626 13.6405 98.9697 13.6405C97.365 13.6405 96.071 14.2067 96.071 14.2067C96.278 10.655 95.0357 7.15483 92.7582 5.81651C92.7582 5.76504 92.7582 5.76504 92.81 5.71357C92.9653 5.35325 93.017 5.04441 93.0688 4.78704C93.0688 4.68409 93.0688 4.58115 93.0688 4.47821C94.6216 5.4562 96.0192 7.30925 96.5368 9.1623C96.5368 9.1623 96.5368 9.1623 96.5886 9.1623C97.158 9.1623 101.506 9.26525 103.991 12.8684C107.407 17.7069 105.078 22.4425 105.078 22.4425C106.268 22.8543 113.981 27.5899 105.854 33.7152C103.369 35.5683 98.5038 37.164 90.9983 37.164C81.9916 37.2154 74.4343 34.5388 71.7944 30.1121ZM91.6712 21.8248V21.9278L91.2571 22.391L90.6359 23.0602L90.0148 23.6779L89.5489 24.1411H86.5467L86.0809 23.6779L85.4597 23.0602L84.8386 22.391L84.4245 21.9278V21.6704V21.413V19.2511V18.9938V18.7364L86.495 16.5745H86.9091H86.9608H89.0831H89.1348H89.5489L91.6194 18.7364V18.9938V19.2511V21.3101V21.5675V21.8248H91.6712ZM75.9354 22.8543C75.4178 22.8543 74.0202 21.3101 74.5378 21.1557C77.1777 20.2291 80.4388 19.6115 83.9068 19.3026V21.4645C80.9564 21.7219 78.213 22.2366 75.9872 22.8543H75.9354ZM92.4476 6.38273C92.4476 6.33125 92.4994 6.27978 92.4994 6.27978C94.4664 7.51515 95.7086 10.7065 95.5016 14.2067L95.4498 15.0303L96.1745 14.7215C96.1745 14.7215 97.4168 14.2067 98.9179 14.2067C100.419 14.2067 102.334 14.9274 103.214 16.9863C103.835 18.479 103.473 20.3321 103.111 21.1042C99.8496 19.9203 96.1227 19.1482 92.137 18.8393V18.6335L91.9818 18.479L89.8595 16.2657L89.8077 16.2142L89.6525 16.0598H89.5489C89.9113 13.3317 90.3771 11.1183 91.1018 9.3682C91.7747 7.87547 92.1888 6.94894 92.4476 6.38273ZM89.963 1.90452V1.95599C90.0148 2.05894 90.0665 2.21336 90.0665 2.36778C90.1183 2.36778 90.1701 2.36778 90.3254 2.36778C90.4806 2.36778 90.7395 2.41926 90.9465 2.52221C91.2571 2.62515 91.5677 2.77957 91.8265 3.03694C91.93 3.13989 92.0335 3.29431 92.137 3.39726C92.137 3.44873 92.1888 3.44873 92.1888 3.5002C92.2406 3.55168 92.2406 3.65462 92.2923 3.75757C92.2923 3.80904 92.3441 3.86052 92.3441 3.91199C92.3441 3.96347 92.3959 4.06642 92.3959 4.11789V4.16936C92.4476 4.37525 92.4476 4.52968 92.3959 4.6841C92.3959 4.94146 92.2923 5.14736 92.1888 5.4562C92.1888 5.4562 92.1888 5.4562 92.1888 5.50768C92.137 5.55915 92.137 5.6621 92.0853 5.76505C92.0335 5.81652 92.0335 5.91946 91.9818 5.97094C91.6712 6.58862 91.2571 7.51515 90.6359 9.11083C89.8077 11.2727 89.3419 13.8464 89.0831 16.0083H86.9608H86.9091C86.6502 13.8979 86.1844 11.2727 85.3562 9.11083C85.1491 8.5961 84.9938 8.1843 84.8386 7.77252C84.8386 7.72104 84.7868 7.66957 84.7868 7.61809C84.735 7.51515 84.735 7.46368 84.6833 7.4122C84.6315 7.30925 84.5797 7.20631 84.5797 7.20631V7.15483C84.5797 7.15483 84.5797 7.15483 84.5797 7.10336C84.528 7.00041 84.528 6.94894 84.4762 6.84599C84.4245 6.74304 84.4245 6.69157 84.3727 6.58862C83.9586 5.71357 83.7515 5.25031 83.648 4.89C83.5963 4.63263 83.5963 4.42673 83.648 4.16936C83.648 4.11789 83.648 4.06641 83.6998 4.01494C83.6998 3.96346 83.7515 3.86052 83.7515 3.80905C83.7515 3.75757 83.8033 3.7061 83.8551 3.65462C83.9068 3.55168 83.9068 3.5002 83.9586 3.39726C84.0104 3.34578 84.0621 3.29431 84.0621 3.24283C84.6833 2.41925 85.7703 2.36778 85.9773 2.36778H86.0291C86.4432 0.463258 87.8925 0.46326 88.0996 0.46326C88.2549 0.514733 89.4454 0.514735 89.963 1.90452ZM81.6293 14.2067C81.6293 14.2067 80.1799 13.0743 77.9542 13.0743C77.7471 13.0743 77.5401 13.0743 77.333 13.1258C71.2251 13.7435 69.7757 21.3616 75.2108 25.0162C79.2482 27.7443 84.4762 28.3105 87.7372 28.3105H87.789C92.3959 28.3105 98.1415 27.281 100.885 25.1706C102.127 25.1706 104.353 26.8692 101.868 28.5679C99.3838 30.2665 94.7252 31.4504 89.3419 31.4504C87.2196 31.4504 84.9938 31.2445 82.7163 30.8327C78.7824 30.1121 74.6931 28.7223 71.7427 25.2736C67.5499 27.7443 69.3616 33.2005 76.3495 36.6492C79.3517 38.0905 82.8198 39.0685 88.8243 39.3773C89.5489 39.4288 90.3254 39.4288 91.05 39.4288C95.8122 39.4288 100.367 38.7082 103.162 37.7302L103.266 41.951C99.3838 42.929 95.6569 43.3408 92.1888 43.3408C82.9751 43.3408 75.4178 40.4583 71.5356 37.2669C61.0279 28.6708 70.5521 23.2146 70.5521 23.2146C69.8275 22.5455 68.3264 17.2437 72.105 12.9199C74.7449 9.83146 77.9542 9.21378 79.1447 9.21378C79.4035 9.21378 79.5588 9.21378 79.5588 9.21378C79.5588 9.21378 80.4905 6.48568 82.9234 4.63263C82.9751 4.58115 83.0786 4.52968 83.1304 4.47821C83.1304 4.6841 83.1304 4.88999 83.1822 5.09589C83.2857 5.4562 83.441 5.81652 83.6998 6.43421C83.8033 6.6401 83.9068 6.84599 84.0104 7.05189C83.8551 7.20631 83.6998 7.36073 83.5963 7.51515C81.1634 10.4491 81.6293 14.2067 81.6293 14.2067Z" fill="url(#paint21_linear_1937_389)"/>
<path d="M89.4972 18.8906C89.3937 18.7876 89.3419 18.7362 89.2384 18.6332C88.876 18.3759 88.4619 18.2214 88.0478 18.2214C87.582 18.2214 87.1679 18.3759 86.8573 18.6332C86.7538 18.6847 86.6503 18.7876 86.5985 18.8906C86.5467 18.9935 86.4432 19.045 86.3914 19.148C86.1844 19.5083 86.0291 19.8686 86.0291 20.3319C86.0291 20.6922 86.1326 21.001 86.2362 21.2584C86.2879 21.3613 86.3397 21.4128 86.3914 21.5157C86.4432 21.6187 86.495 21.6702 86.5985 21.7731C86.9608 22.1849 87.4785 22.4423 88.0478 22.4423C88.669 22.4423 89.1866 22.1849 89.5489 21.7216C89.6007 21.6187 89.7042 21.5672 89.756 21.4643C89.8078 21.3613 89.8595 21.3099 89.9113 21.2069C90.0148 20.9495 90.1183 20.6407 90.1183 20.2804C90.1183 19.8686 90.0148 19.4568 89.756 19.0965C89.6525 19.045 89.6007 18.9935 89.4972 18.8906ZM89.2901 21.2069C89.2384 21.3099 89.1866 21.3613 89.0831 21.4643C88.9796 21.5672 88.876 21.6187 88.7725 21.7216C88.5655 21.8761 88.3067 21.9275 87.9961 21.9275C87.7373 21.9275 87.4785 21.8761 87.2714 21.7216C87.1679 21.6702 87.0644 21.5672 86.9608 21.4643C86.9091 21.4128 86.8055 21.3099 86.7538 21.2069C86.5985 20.9495 86.495 20.6407 86.495 20.2804C86.495 19.8171 86.702 19.4053 87.0126 19.0965C87.1161 18.9935 87.2196 18.8906 87.3749 18.8391C87.582 18.7362 87.789 18.6847 88.0478 18.6847C88.3067 18.6847 88.5137 18.7362 88.7208 18.8391C88.876 18.8906 88.9796 18.9935 89.0831 19.0965C89.3937 19.4053 89.6007 19.8171 89.6007 20.2804C89.549 20.6407 89.4454 20.9495 89.2901 21.2069Z" fill="url(#paint22_linear_1937_389)"/>
<path d="M87.8408 2.36777C87.789 2.41925 87.789 2.5222 87.7373 2.57367C87.7373 2.57367 87.7373 2.57367 87.7373 2.62514C87.6855 2.67661 87.6855 2.77957 87.6337 2.83104C87.6337 2.83104 87.6337 2.83104 87.6337 2.88251C87.5302 3.0884 87.3749 3.34578 87.2714 3.60315C86.9608 4.16936 86.5985 4.78704 86.3397 5.40472C86.2879 5.50767 86.2362 5.61061 86.2362 5.71356C86.1844 5.81651 86.1844 5.91946 86.1326 6.0224C86.1326 6.07388 86.1326 6.12535 86.0809 6.17683C86.0809 6.27977 86.0809 6.33125 86.0809 6.4342C86.0809 7.51514 87.0644 8.44166 88.0996 8.44166V8.1843V7.92693C87.3232 7.92693 86.5985 7.15483 86.5985 6.4342C86.5985 6.38272 86.5985 6.33124 86.5985 6.2283C86.5985 6.07387 86.6503 5.86798 86.702 5.71356C86.7538 5.61061 86.7538 5.50767 86.8055 5.40472C86.8573 5.30178 86.9091 5.19882 86.9608 5.09588C87.1679 4.68409 87.3749 4.32377 87.582 3.91198L87.6337 3.80904C87.789 3.55167 87.8926 3.2943 88.0478 3.08841C88.1514 3.2943 88.3067 3.55167 88.4619 3.80904L88.5137 3.91198C88.669 4.16935 88.8243 4.47819 88.9796 4.78703C89.0313 4.88998 89.0831 4.94145 89.1349 5.0444C89.1349 5.0444 89.1349 5.0444 89.1349 5.09588C89.1866 5.19882 89.1866 5.2503 89.2384 5.30177C89.4454 5.76503 89.5489 6.17682 89.5489 6.48566C89.5489 7.25777 88.8243 7.9784 88.0478 7.9784V8.23577V8.49314C89.0831 8.49314 90.0666 7.51514 90.0666 6.48566C90.0666 6.12535 89.963 5.76503 89.8078 5.35325C89.756 5.2503 89.756 5.19882 89.7042 5.09588C89.6525 5.0444 89.6525 4.94146 89.6007 4.88999V4.83851C89.3937 4.42672 89.1866 4.01493 88.9278 3.65461C88.7725 3.39725 88.669 3.19135 88.5655 2.98546C88.5655 2.93398 88.5137 2.93398 88.5137 2.88251C88.4619 2.83104 88.4619 2.77956 88.4102 2.72809C88.3584 2.62514 88.3067 2.52219 88.2549 2.47072C88.1514 2.26482 88.0478 2.1104 88.0478 2.1104C88.0478 2.00746 87.9443 2.16188 87.8408 2.36777Z" fill="url(#paint23_linear_1937_389)"/>
<path d="M68.0676 109.433L66.1006 113.963V114.066H67.0324L67.3947 113.242H69.3099L69.6722 114.066H70.6557V113.963L68.6888 109.433H68.0676ZM67.6535 112.47L68.2747 110.926L68.8958 112.47H67.6535Z" fill="url(#paint24_linear_1937_389)"/>
<path d="M72.1051 109.433H71.1733V114.066H73.865V113.242H72.1051V109.433Z" fill="url(#paint25_linear_1937_389)"/>
<path d="M75.4696 109.433H74.5379V114.066H77.2296V113.242H75.4696V109.433Z" fill="url(#paint26_linear_1937_389)"/>
<path d="M83.0269 112.367H82.9751L80.387 109.433H79.8694V114.066H80.7493V111.183L83.3892 114.066H83.9068V109.433H83.0269V112.367Z" fill="url(#paint27_linear_1937_389)"/>
<path d="M86.495 109.433L84.528 113.963V114.066H85.4597L85.8221 113.242H87.7373L88.0996 114.066H89.0831V113.963L87.1161 109.433H86.495ZM86.1327 112.47L86.7538 110.926L87.3749 112.47H86.1327Z" fill="url(#paint28_linear_1937_389)"/>
<path d="M88.4102 110.257H90.0149V114.066H90.9466V110.257H92.5512V109.433H88.4102V110.257Z" fill="url(#paint29_linear_1937_389)"/>
<path d="M96.3298 112.161C96.3298 112.933 95.9675 113.293 95.191 113.293C94.4664 113.293 94.0523 112.933 94.0523 112.161V109.381H93.1205V112.109C93.1205 113.396 93.8452 114.117 95.191 114.117C96.4851 114.117 97.2098 113.396 97.2098 112.109V109.381H96.3298V112.161Z" fill="url(#paint30_linear_1937_389)"/>
<path d="M101.92 110.926C101.92 109.999 101.351 109.433 100.316 109.433H98.1933V114.066H99.125V112.367H99.9532L100.937 114.066H101.92V113.963L100.885 112.316C101.558 112.161 101.92 111.646 101.92 110.926ZM100.16 111.595H99.125V110.257H100.212C100.781 110.257 100.988 110.463 100.988 110.926C100.988 111.389 100.73 111.595 100.16 111.595Z" fill="url(#paint31_linear_1937_389)"/>
<path d="M104.198 109.433L102.231 113.963V114.066H103.162L103.525 113.242H105.44L105.802 114.066H106.786V113.963L104.819 109.433H104.198ZM103.784 112.47L104.405 110.926L105.026 112.47H103.784Z" fill="url(#paint32_linear_1937_389)"/>
<path d="M108.235 113.242V109.433H107.303V114.066H109.995V113.242H108.235Z" fill="url(#paint33_linear_1937_389)"/>
<path d="M70.3452 122.301L69.3099 119.367H69.0511L67.9641 122.301L67.0324 119.367H66.1006V119.47L67.6535 124H68.1711L69.1546 121.426L70.1381 124H70.6557L72.2086 119.47V119.367H71.2769L70.3452 122.301Z" fill="url(#paint34_linear_1937_389)"/>
<path d="M73.7614 122.044H76.0907V121.22H73.7614V120.191H76.246V119.367H72.8297V124H76.2978V123.176H73.7614V122.044Z" fill="url(#paint35_linear_1937_389)"/>
<path d="M78.006 119.367H77.0743V124H80.3353V123.176H78.006V119.367Z" fill="url(#paint36_linear_1937_389)"/>
<path d="M81.8881 119.367H80.9564V124H84.1657V123.176H81.8881V119.367Z" fill="url(#paint37_linear_1937_389)"/>
<path d="M92.7583 119.367H91.8265L90.8948 122.301H90.8431L89.8078 119.367H89.549L88.5137 122.301H88.462L87.582 119.367H86.5985V119.47L88.1514 124H88.669L89.6525 121.426L90.6878 124H91.2054L92.7583 119.47V119.367Z" fill="url(#paint38_linear_1937_389)"/>
<path d="M94.5182 119.367L92.5512 123.897V124H93.483L93.8453 123.176H95.7605L96.1228 124H97.1063V123.897L95.1394 119.367H94.5182ZM94.1559 122.404L94.777 120.86L95.3982 122.404H94.1559Z" fill="url(#paint39_linear_1937_389)"/>
<path d="M96.951 120.191H98.5556V124H99.4873V120.191H101.092V119.367H96.951V120.191Z" fill="url(#paint40_linear_1937_389)"/>
<path d="M102.904 122.044H105.233V121.22H102.904V120.191H105.388V119.367H101.972V124H105.388V123.176H102.904V122.044Z" fill="url(#paint41_linear_1937_389)"/>
<path d="M108.908 122.25C109.581 122.095 109.943 121.581 109.943 120.86C109.943 119.933 109.374 119.367 108.339 119.367H106.216V124H107.148V122.301H107.976L108.96 124H109.943V123.897L108.908 122.25ZM108.183 121.529H107.148V120.191H108.235C108.805 120.191 109.012 120.397 109.012 120.86C109.012 121.323 108.753 121.529 108.183 121.529Z" fill="url(#paint42_linear_1937_389)"/>
<defs>
<linearGradient id="paint0_linear_1937_389" x1="19.2413" y1="0.124875" x2="18.8416" y2="116.307" gradientUnits="userSpaceOnUse">
<stop stop-color="#6DCEF5"/>
<stop offset="1" stop-color="#0071BB"/>
</linearGradient>
<linearGradient id="paint1_linear_1937_389" x1="55.3288" y1="0.249375" x2="54.929" y2="116.432" gradientUnits="userSpaceOnUse">
<stop stop-color="#6DCEF5"/>
<stop offset="1" stop-color="#0071BB"/>
</linearGradient>
<linearGradient id="paint2_linear_1937_389" x1="88.4262" y1="0.362924" x2="88.0264" y2="116.546" gradientUnits="userSpaceOnUse">
<stop stop-color="#6DCEF5"/>
<stop offset="1" stop-color="#0071BB"/>
</linearGradient>
<linearGradient id="paint3_linear_1937_389" x1="121.22" y1="0.476115" x2="120.82" y2="116.659" gradientUnits="userSpaceOnUse">
<stop stop-color="#6DCEF5"/>
<stop offset="1" stop-color="#0071BB"/>
</linearGradient>
<linearGradient id="paint4_linear_1937_389" x1="157.35" y1="0.600141" x2="156.951" y2="116.783" gradientUnits="userSpaceOnUse">
<stop stop-color="#6DCEF5"/>
<stop offset="1" stop-color="#0071BB"/>
</linearGradient>
<linearGradient id="paint5_linear_1937_389" x1="-6.5224" y1="80.2752" x2="183.291" y2="80.2752" gradientUnits="userSpaceOnUse">
<stop stop-color="#CCC6C1"/>
<stop offset="0.066684" stop-color="#BDB8B4"/>
<stop offset="0.1461" stop-color="#A6A29F"/>
<stop offset="0.5225" stop-color="#DFE0E1"/>
<stop offset="0.6246" stop-color="#D2D2D2"/>
<stop offset="0.8198" stop-color="#B1AEAB"/>
<stop offset="0.8764" stop-color="#A6A29F"/>
<stop offset="1" stop-color="#A6A8AB"/>
</linearGradient>
<linearGradient id="paint6_linear_1937_389" x1="-6.5224" y1="76.1807" x2="183.285" y2="76.1807" gradientUnits="userSpaceOnUse">
<stop stop-color="#CCC6C1"/>
<stop offset="0.066684" stop-color="#BDB8B4"/>
<stop offset="0.1461" stop-color="#A6A29F"/>
<stop offset="0.5225" stop-color="#DFE0E1"/>
<stop offset="0.6246" stop-color="#D2D2D2"/>
<stop offset="0.8198" stop-color="#B1AEAB"/>
<stop offset="0.8764" stop-color="#A6A29F"/>
<stop offset="1" stop-color="#A6A8AB"/>
</linearGradient>
<linearGradient id="paint7_linear_1937_389" x1="-6.52238" y1="76.0613" x2="183.285" y2="76.0613" gradientUnits="userSpaceOnUse">
<stop stop-color="#CCC6C1"/>
<stop offset="0.066684" stop-color="#BDB8B4"/>
<stop offset="0.1461" stop-color="#A6A29F"/>
<stop offset="0.5225" stop-color="#DFE0E1"/>
<stop offset="0.6246" stop-color="#D2D2D2"/>
<stop offset="0.8198" stop-color="#B1AEAB"/>
<stop offset="0.8764" stop-color="#A6A29F"/>
<stop offset="1" stop-color="#A6A8AB"/>
</linearGradient>
<linearGradient id="paint8_linear_1937_389" x1="-6.52239" y1="76.0489" x2="183.285" y2="76.0489" gradientUnits="userSpaceOnUse">
<stop stop-color="#CCC6C1"/>
<stop offset="0.066684" stop-color="#BDB8B4"/>
<stop offset="0.1461" stop-color="#A6A29F"/>
<stop offset="0.5225" stop-color="#DFE0E1"/>
<stop offset="0.6246" stop-color="#D2D2D2"/>
<stop offset="0.8198" stop-color="#B1AEAB"/>
<stop offset="0.8764" stop-color="#A6A29F"/>
<stop offset="1" stop-color="#A6A8AB"/>
</linearGradient>
<linearGradient id="paint9_linear_1937_389" x1="-6.52247" y1="76.1807" x2="183.285" y2="76.1807" gradientUnits="userSpaceOnUse">
<stop stop-color="#CCC6C1"/>
<stop offset="0.066684" stop-color="#BDB8B4"/>
<stop offset="0.1461" stop-color="#A6A29F"/>
<stop offset="0.5225" stop-color="#DFE0E1"/>
<stop offset="0.6246" stop-color="#D2D2D2"/>
<stop offset="0.8198" stop-color="#B1AEAB"/>
<stop offset="0.8764" stop-color="#A6A29F"/>
<stop offset="1" stop-color="#A6A8AB"/>
</linearGradient>
<linearGradient id="paint10_linear_1937_389" x1="-6.5224" y1="80.275" x2="183.291" y2="80.275" gradientUnits="userSpaceOnUse">
<stop stop-color="#CCC6C1"/>
<stop offset="0.066684" stop-color="#BDB8B4"/>
<stop offset="0.1461" stop-color="#A6A29F"/>
<stop offset="0.5225" stop-color="#DFE0E1"/>
<stop offset="0.6246" stop-color="#D2D2D2"/>
<stop offset="0.8198" stop-color="#B1AEAB"/>
<stop offset="0.8764" stop-color="#A6A29F"/>
<stop offset="1" stop-color="#A6A8AB"/>
</linearGradient>
<radialGradient id="paint11_radial_1937_389" cx="0" cy="0" r="1" gradientUnits="userSpaceOnUse" gradientTransform="translate(88.0308 24.7185) scale(10.9208 2.8062)">
<stop offset="0.005618" stop-color="#BBD6DD"/>
<stop offset="0.2384" stop-color="#BDD7DE"/>
<stop offset="0.3617" stop-color="#C5DBE1"/>
<stop offset="0.4593" stop-color="#D3E3E7"/>
<stop offset="0.4719" stop-color="#D5E4E8"/>
<stop offset="0.4744" stop-color="#D3E3E8"/>
<stop offset="0.5176" stop-color="#B9D7E1"/>
<stop offset="0.5651" stop-color="#A5CDDC"/>
<stop offset="0.619" stop-color="#97C6D9"/>
<stop offset="0.6845" stop-color="#8FC2D7"/>
<stop offset="0.7933" stop-color="#8CC1D6"/>
<stop offset="1" stop-color="#8CC1D6" stop-opacity="0"/>
</radialGradient>
<linearGradient id="paint12_linear_1937_389" x1="85.4403" y1="25.4837" x2="85.4403" y2="23.2336" gradientUnits="userSpaceOnUse">
<stop stop-color="#6DCEF5"/>
<stop offset="1" stop-color="#0071BB"/>
</linearGradient>
<linearGradient id="paint13_linear_1937_389" x1="90.6201" y1="25.4734" x2="90.6201" y2="23.2328" gradientUnits="userSpaceOnUse">
<stop stop-color="#6DCEF5"/>
<stop offset="1" stop-color="#0071BB"/>
</linearGradient>
<radialGradient id="paint14_radial_1937_389" cx="0" cy="0" r="1" gradientUnits="userSpaceOnUse" gradientTransform="translate(87.9927 17.0824) scale(9.67257 10.0836)">
<stop stop-color="#8CC1D6"/>
<stop offset="0.0331943" stop-color="#97C7DA"/>
<stop offset="0.1409" stop-color="#B7D8E5"/>
<stop offset="0.2581" stop-color="#D1E6EF"/>
<stop offset="0.3864" stop-color="#E6F1F6"/>
<stop offset="0.5315" stop-color="#F4F9FB"/>
<stop offset="0.7074" stop-color="#FCFEFE"/>
<stop offset="1" stop-color="white"/>
</radialGradient>
<radialGradient id="paint15_radial_1937_389" cx="0" cy="0" r="1" gradientUnits="userSpaceOnUse" gradientTransform="translate(87.9518 8.52096) scale(11.4825 11.9705)">
<stop stop-color="#8CC1D6"/>
<stop offset="0.0331943" stop-color="#97C7DA"/>
<stop offset="0.1409" stop-color="#B7D8E5"/>
<stop offset="0.2581" stop-color="#D1E6EF"/>
<stop offset="0.3864" stop-color="#E6F1F6"/>
<stop offset="0.5315" stop-color="#F4F9FB"/>
<stop offset="0.7074" stop-color="#FCFEFE"/>
<stop offset="1" stop-color="white"/>
</radialGradient>
<linearGradient id="paint16_linear_1937_389" x1="66.1326" y1="21.35" x2="109.384" y2="20.4438" gradientUnits="userSpaceOnUse">
<stop stop-color="#6DCEF5"/>
<stop offset="1" stop-color="#0071BB"/>
</linearGradient>
<linearGradient id="paint17_linear_1937_389" x1="66.1944" y1="24.3001" x2="109.446" y2="23.3939" gradientUnits="userSpaceOnUse">
<stop stop-color="#6DCEF5"/>
<stop offset="1" stop-color="#0071BB"/>
</linearGradient>
<linearGradient id="paint18_linear_1937_389" x1="66.133" y1="21.3706" x2="109.385" y2="20.4645" gradientUnits="userSpaceOnUse">
<stop stop-color="#6DCEF5"/>
<stop offset="1" stop-color="#0071BB"/>
</linearGradient>
<linearGradient id="paint19_linear_1937_389" x1="88.0304" y1="13.4117" x2="88.0304" y2="23.9309" gradientUnits="userSpaceOnUse">
<stop stop-color="#6DCEF5"/>
<stop offset="1" stop-color="#0071BB"/>
</linearGradient>
<linearGradient id="paint20_linear_1937_389" x1="88.0669" y1="-5.00056" x2="87.9607" y2="23.0881" gradientUnits="userSpaceOnUse">
<stop stop-color="#6DCEF5"/>
<stop offset="1" stop-color="#0071BB"/>
</linearGradient>
<linearGradient id="paint21_linear_1937_389" x1="-3.26413" y1="21.8991" x2="172.326" y2="21.8991" gradientUnits="userSpaceOnUse">
<stop stop-color="#CCC6C1"/>
<stop offset="0.066684" stop-color="#BDB8B4"/>
<stop offset="0.1461" stop-color="#A6A29F"/>
<stop offset="0.5225" stop-color="#DFE0E1"/>
<stop offset="0.6246" stop-color="#D2D2D2"/>
<stop offset="0.8198" stop-color="#B1AEAB"/>
<stop offset="0.8764" stop-color="#A6A29F"/>
<stop offset="1" stop-color="#A6A8AB"/>
</linearGradient>
<linearGradient id="paint22_linear_1937_389" x1="-3.26404" y1="20.3199" x2="172.326" y2="20.3199" gradientUnits="userSpaceOnUse">
<stop stop-color="#CCC6C1"/>
<stop offset="0.066684" stop-color="#BDB8B4"/>
<stop offset="0.1461" stop-color="#A6A29F"/>
<stop offset="0.5225" stop-color="#DFE0E1"/>
<stop offset="0.6246" stop-color="#D2D2D2"/>
<stop offset="0.8198" stop-color="#B1AEAB"/>
<stop offset="0.8764" stop-color="#A6A29F"/>
<stop offset="1" stop-color="#A6A8AB"/>
</linearGradient>
<linearGradient id="paint23_linear_1937_389" x1="-3.26407" y1="5.22796" x2="172.326" y2="5.22796" gradientUnits="userSpaceOnUse">
<stop stop-color="#CCC6C1"/>
<stop offset="0.066684" stop-color="#BDB8B4"/>
<stop offset="0.1461" stop-color="#A6A29F"/>
<stop offset="0.5225" stop-color="#DFE0E1"/>
<stop offset="0.6246" stop-color="#D2D2D2"/>
<stop offset="0.8198" stop-color="#B1AEAB"/>
<stop offset="0.8764" stop-color="#A6A29F"/>
<stop offset="1" stop-color="#A6A8AB"/>
</linearGradient>
<linearGradient id="paint24_linear_1937_389" x1="63.2848" y1="111.772" x2="110.816" y2="111.772" gradientUnits="userSpaceOnUse">
<stop stop-color="#6DCEF5"/>
<stop offset="1" stop-color="#0071BB"/>
</linearGradient>
<linearGradient id="paint25_linear_1937_389" x1="63.2848" y1="111.772" x2="110.816" y2="111.772" gradientUnits="userSpaceOnUse">
<stop stop-color="#6DCEF5"/>
<stop offset="1" stop-color="#0071BB"/>
</linearGradient>
<linearGradient id="paint26_linear_1937_389" x1="63.2848" y1="111.772" x2="110.816" y2="111.772" gradientUnits="userSpaceOnUse">
<stop stop-color="#6DCEF5"/>
<stop offset="1" stop-color="#0071BB"/>
</linearGradient>
<linearGradient id="paint27_linear_1937_389" x1="63.2848" y1="111.772" x2="110.816" y2="111.772" gradientUnits="userSpaceOnUse">
<stop stop-color="#6DCEF5"/>
<stop offset="1" stop-color="#0071BB"/>
</linearGradient>
<linearGradient id="paint28_linear_1937_389" x1="63.2848" y1="111.772" x2="110.816" y2="111.772" gradientUnits="userSpaceOnUse">
<stop stop-color="#6DCEF5"/>
<stop offset="1" stop-color="#0071BB"/>
</linearGradient>
<linearGradient id="paint29_linear_1937_389" x1="63.2848" y1="111.772" x2="110.816" y2="111.772" gradientUnits="userSpaceOnUse">
<stop stop-color="#6DCEF5"/>
<stop offset="1" stop-color="#0071BB"/>
</linearGradient>
<linearGradient id="paint30_linear_1937_389" x1="63.2847" y1="111.772" x2="110.816" y2="111.772" gradientUnits="userSpaceOnUse">
<stop stop-color="#6DCEF5"/>
<stop offset="1" stop-color="#0071BB"/>
</linearGradient>
<linearGradient id="paint31_linear_1937_389" x1="63.2849" y1="111.772" x2="110.816" y2="111.772" gradientUnits="userSpaceOnUse">
<stop stop-color="#6DCEF5"/>
<stop offset="1" stop-color="#0071BB"/>
</linearGradient>
<linearGradient id="paint32_linear_1937_389" x1="63.2847" y1="111.772" x2="110.816" y2="111.772" gradientUnits="userSpaceOnUse">
<stop stop-color="#6DCEF5"/>
<stop offset="1" stop-color="#0071BB"/>
</linearGradient>
<linearGradient id="paint33_linear_1937_389" x1="63.285" y1="111.772" x2="110.816" y2="111.772" gradientUnits="userSpaceOnUse">
<stop stop-color="#6DCEF5"/>
<stop offset="1" stop-color="#0071BB"/>
</linearGradient>
<linearGradient id="paint34_linear_1937_389" x1="63.2848" y1="121.683" x2="110.816" y2="121.683" gradientUnits="userSpaceOnUse">
<stop stop-color="#6DCEF5"/>
<stop offset="1" stop-color="#0071BB"/>
</linearGradient>
<linearGradient id="paint35_linear_1937_389" x1="63.2848" y1="121.683" x2="110.816" y2="121.683" gradientUnits="userSpaceOnUse">
<stop stop-color="#6DCEF5"/>
<stop offset="1" stop-color="#0071BB"/>
</linearGradient>
<linearGradient id="paint36_linear_1937_389" x1="63.2848" y1="121.683" x2="110.816" y2="121.683" gradientUnits="userSpaceOnUse">
<stop stop-color="#6DCEF5"/>
<stop offset="1" stop-color="#0071BB"/>
</linearGradient>
<linearGradient id="paint37_linear_1937_389" x1="63.2848" y1="121.683" x2="110.816" y2="121.683" gradientUnits="userSpaceOnUse">
<stop stop-color="#6DCEF5"/>
<stop offset="1" stop-color="#0071BB"/>
</linearGradient>
<linearGradient id="paint38_linear_1937_389" x1="63.2848" y1="121.683" x2="110.816" y2="121.683" gradientUnits="userSpaceOnUse">
<stop stop-color="#6DCEF5"/>
<stop offset="1" stop-color="#0071BB"/>
</linearGradient>
<linearGradient id="paint39_linear_1937_389" x1="63.2849" y1="121.683" x2="110.816" y2="121.683" gradientUnits="userSpaceOnUse">
<stop stop-color="#6DCEF5"/>
<stop offset="1" stop-color="#0071BB"/>
</linearGradient>
<linearGradient id="paint40_linear_1937_389" x1="63.2848" y1="121.683" x2="110.816" y2="121.683" gradientUnits="userSpaceOnUse">
<stop stop-color="#6DCEF5"/>
<stop offset="1" stop-color="#0071BB"/>
</linearGradient>
<linearGradient id="paint41_linear_1937_389" x1="63.2848" y1="121.683" x2="110.816" y2="121.683" gradientUnits="userSpaceOnUse">
<stop stop-color="#6DCEF5"/>
<stop offset="1" stop-color="#0071BB"/>
</linearGradient>
<linearGradient id="paint42_linear_1937_389" x1="63.2849" y1="121.683" x2="110.816" y2="121.683" gradientUnits="userSpaceOnUse">
<stop stop-color="#6DCEF5"/>
<stop offset="1" stop-color="#0071BB"/>
</linearGradient>
</defs>
</svg>
