<svg width="160" height="39" viewBox="0 0 160 39" fill="none" xmlns="http://www.w3.org/2000/svg">
<path d="M28.8077 4.21369C27.3014 2.85594 25.5127 1.82593 23.4886 1.07683C21.4175 0.327733 19.2051 0 16.7574 0C11.8149 0 7.86093 1.40456 4.80129 4.2605C2.16529 6.74189 0.564858 9.92556 0.141216 13.8115C0.0470729 14.5606 0 15.3097 0 16.0588C0 19.2893 0.847287 22.4262 2.49479 25.5162C4.75422 29.6831 8.19043 32.9136 12.7564 35.2545C17.4635 37.6423 23.0179 38.8595 29.3255 38.8595V35.6759C26.7366 35.6759 24.4301 35.6291 22.4531 35.4886C20.4761 35.3481 18.6403 35.1609 16.9928 34.8331C15.3453 34.5054 13.9331 34.1308 12.8034 33.7095C11.6266 33.2881 10.6381 32.6795 9.74379 31.9304C8.84943 31.1813 8.14336 30.3853 7.62557 29.4958C7.10779 28.6062 6.63707 27.5762 6.30757 26.3121C5.97807 25.048 5.74271 23.7371 5.6015 22.3325C5.46029 20.928 5.41321 19.3361 5.41321 17.4634C5.41321 15.3565 5.50736 13.4838 5.74272 11.892C5.931 10.3001 6.30757 8.7551 6.82536 7.35054C7.34314 5.94598 8.00214 4.77551 8.84943 3.88596C9.69671 2.9964 10.7794 2.2473 12.0974 1.73229C13.4154 1.21729 14.9687 0.936375 16.7574 0.936375C18.5461 0.936375 20.0524 1.21729 21.4175 1.73229C22.7355 2.2473 23.8181 2.94958 24.6654 3.83913C25.5127 4.72869 26.1717 5.80552 26.6895 7.11645C27.2073 8.42737 27.5839 9.78511 27.7721 11.2365C27.9604 12.6879 28.1016 14.2797 28.1016 16.012C28.1016 18.2125 27.9134 20.132 27.5839 21.8175C27.2544 23.503 26.6895 25.0948 25.8893 26.4994C25.0891 27.9508 23.9594 29.0276 22.5001 29.8235C21.0409 30.6194 19.2522 31.0408 17.1811 31.0876V32.0708C19.5346 32.024 21.6999 31.6495 23.724 30.9004C25.7481 30.1513 27.4426 29.1213 28.9019 27.7635C30.3611 26.4058 31.4908 24.7203 32.291 22.7071C33.0912 20.6939 33.5149 18.4466 33.5149 16.012C33.5149 13.5306 33.0912 11.2365 32.2439 9.22329C31.4437 7.2569 30.2669 5.57143 28.8077 4.21369Z" fill="url(#paint0_linear_1222_11027)"/>
<path d="M62.8874 20.8811V0H61.5223V21.3025C61.5223 24.0648 60.5338 26.2653 58.5568 27.9508C56.5798 29.6363 53.9438 30.479 50.6959 30.479C48.107 30.479 46.0358 29.5426 44.4354 27.623C42.835 25.7035 42.0818 23.2221 42.0818 20.0852V0H36.8098V21.443C36.8098 24.4394 38.0808 26.8271 40.6226 28.6999C43.1645 30.5726 46.5066 31.4622 50.6959 31.4622C54.3675 31.4622 57.2859 30.479 59.5453 28.5594C61.8048 26.593 62.8874 24.0648 62.8874 20.8811Z" fill="url(#paint1_linear_1222_11027)"/>
<path d="M93.7663 15.6375C93.7663 10.9556 92.3071 7.16326 89.3416 4.30732C86.3761 1.45138 82.5162 0 77.7149 0H66.1824V31.2281H77.7149C82.5162 31.1813 86.4231 29.7299 89.3416 26.874C92.26 24.018 93.7663 20.2725 93.7663 15.6375ZM75.9733 29.6363H71.8781V1.54502H75.9733C79.4566 1.54502 82.2809 2.80912 84.352 5.33733C86.4702 7.91236 87.5058 11.3301 87.5058 15.5438C87.5058 19.8043 86.4231 23.2689 84.352 25.7971C82.2809 28.3721 79.5036 29.6363 75.9733 29.6363Z" fill="url(#paint2_linear_1222_11027)"/>
<path d="M121.774 21.3025C121.774 24.0648 120.785 26.2653 118.808 27.9508C116.831 29.6363 114.195 30.479 110.947 30.479C108.358 30.479 106.287 29.5426 104.687 27.623C103.086 25.7035 102.333 23.2221 102.333 20.0852V0H97.0613V21.443C97.0613 24.4394 98.3322 26.8271 100.874 28.6999C103.416 30.5726 106.758 31.4622 110.947 31.4622C114.619 31.4622 117.537 30.479 119.797 28.5594C122.056 26.6398 123.139 24.0648 123.139 20.928V0.0468144H121.774V21.3025Z" fill="url(#paint3_linear_1222_11027)"/>
<path d="M159.902 13.8115C159.431 9.97238 157.878 6.78871 155.242 4.2605C152.229 1.40456 148.228 0 143.285 0C140.838 0 138.625 0.374551 136.554 1.07683C134.483 1.82593 132.741 2.85594 131.235 4.21369C129.729 5.57143 128.552 7.25691 127.705 9.31693C126.857 11.377 126.434 13.6243 126.434 16.1056C126.434 18.587 126.857 20.8343 127.658 22.8007C128.458 24.8139 129.635 26.4994 131.047 27.8571C132.459 29.2149 134.248 30.2449 136.225 30.994C138.202 31.7431 140.414 32.1176 142.768 32.1645V31.1813C140.696 31.1344 138.908 30.7131 137.449 29.9172C135.989 29.1213 134.86 27.9976 134.059 26.593C133.259 25.1417 132.694 23.5966 132.365 21.9112C132.035 20.2257 131.847 18.3061 131.847 16.1056C131.847 14.3265 131.941 12.7347 132.177 11.3301C132.365 9.87875 132.741 8.52101 133.259 7.21008C133.777 5.89916 134.483 4.77551 135.283 3.93277C136.131 3.04321 137.213 2.34093 138.531 1.82593C139.849 1.31092 141.403 1.03001 143.191 1.03001C144.98 1.03001 146.533 1.31092 147.851 1.82593C149.169 2.34093 150.252 3.04322 151.099 3.97959C151.947 4.86915 152.653 6.03961 153.123 7.44417C153.594 8.84874 154.018 10.3469 154.206 11.9856C154.394 13.5774 154.535 15.4502 154.535 17.557C154.535 19.4298 154.488 21.0684 154.347 22.4262C154.206 23.8307 153.971 25.1417 153.641 26.4058C153.312 27.6699 152.888 28.7467 152.323 29.5894C151.805 30.479 151.052 31.2749 150.205 32.024C149.358 32.7731 148.275 33.3349 147.145 33.8031C145.968 34.2245 144.603 34.6459 142.956 34.9268C141.308 35.2077 139.52 35.4886 137.496 35.5822C135.472 35.6759 133.212 35.7695 130.623 35.7695V39C136.978 39 142.485 37.7827 147.192 35.395C151.758 33.054 155.194 29.8235 157.454 25.6567C159.148 22.5666 159.949 19.4298 159.949 16.1993C160.043 15.3097 159.996 14.5606 159.902 13.8115Z" fill="url(#paint4_linear_1222_11027)"/>
<defs>
<linearGradient id="paint0_linear_1222_11027" x1="17.0039" y1="-66.2387" x2="16.5404" y2="65.2618" gradientUnits="userSpaceOnUse">
<stop stop-color="#6DCEF5"/>
<stop offset="1" stop-color="#0071BB"/>
</linearGradient>
<linearGradient id="paint1_linear_1222_11027" x1="50.0404" y1="-53.6294" x2="49.6499" y2="52.8384" gradientUnits="userSpaceOnUse">
<stop stop-color="#6DCEF5"/>
<stop offset="1" stop-color="#0071BB"/>
</linearGradient>
<linearGradient id="paint2_linear_1222_11027" x1="80.1772" y1="-53.2304" x2="79.8135" y2="52.4454" gradientUnits="userSpaceOnUse">
<stop stop-color="#6DCEF5"/>
<stop offset="1" stop-color="#0071BB"/>
</linearGradient>
<linearGradient id="paint3_linear_1222_11027" x1="110.292" y1="-53.6294" x2="109.901" y2="52.8384" gradientUnits="userSpaceOnUse">
<stop stop-color="#6DCEF5"/>
<stop offset="1" stop-color="#0071BB"/>
</linearGradient>
<linearGradient id="paint4_linear_1222_11027" x1="143.464" y1="-66.4782" x2="142.998" y2="65.4977" gradientUnits="userSpaceOnUse">
<stop stop-color="#6DCEF5"/>
<stop offset="1" stop-color="#0071BB"/>
</linearGradient>
</defs>
</svg>
